<svg viewBox="0 0 291.25 315.26" xmlns="http://www.w3.org/2000/svg" xmlns:xlink="http://www.w3.org/1999/xlink"><clipPath id="a" transform="translate(-79.37 -67.37)"><path d="m196.4 89.05-2.4 1.41c1.73-1 4.13-.86 6.78.67l2.43-1.42c-2.68-1.52-5.08-1.66-6.81-.66z"/></clipPath><clipPath id="b" transform="translate(-79.37 -67.37)"><path d="m344.21 304.1 2.43-1.41c1.7-1 2.76-3.11 2.77-6.11l-2.41 1.42c0 3-1.09 5.11-2.79 6.1z"/></clipPath><clipPath id="c" transform="translate(-79.37 -67.37)"><path d="m347.3 186.7 2.43-1.41c0-6-4.24-13.41-9.5-16.45l-2.43 1.42c5.26 3.03 9.51 10.39 9.5 16.44z"/></clipPath><clipPath id="d" transform="translate(-79.37 -67.37)"><path d="m131.84 159.29 37.35-21.7a3.55 3.55 0 0 1 3.58.35l-37.36 21.71a3.53 3.53 0 0 0 -3.57-.36z"/></clipPath><clipPath id="e" transform="translate(-79.37 -67.37)"><path d="m275.4 307.16-37.35 21.7c6.95-4 11.28-12.6 11.31-24.74l37.36-21.7c-.04 12.13-4.36 20.7-11.32 24.74z"/></clipPath><clipPath id="f" transform="translate(-79.37 -67.37)"><path d="m244.57 222.67 37.35-21.67a11 11 0 0 1 5 8.66l-37.35 21.71a11 11 0 0 0 -5-8.7z"/></clipPath><clipPath id="g" transform="translate(-79.37 -67.37)"><path d="m117.25 259.33-3.59 2.09a1 1 0 0 1 1 .09l3.59-2.09a1 1 0 0 0 -1-.09z"/></clipPath><clipPath id="h" transform="translate(-79.37 -67.37)"><path d="m176.31 243.15-72.69 42.24a2.3 2.3 0 0 1 2.32.23l72.7-42.25a2.31 2.31 0 0 0 -2.33-.22z"/></clipPath><clipPath id="i" transform="translate(-79.37 -67.37)"><path d="m108.25 293.37 72.75-42.24a2.3 2.3 0 0 0 1-2.1 7.19 7.19 0 0 0 -3.26-5.66l-72.7 42.25a7.2 7.2 0 0 1 3.27 5.65 2.28 2.28 0 0 1 -1.06 2.1z"/></clipPath><clipPath id="j" transform="translate(-79.37 -67.37)"><path d="m95 304.92-6.4-3.72a2.59 2.59 0 0 1 1.08 2.36 8.13 8.13 0 0 1 -3.68 6.36l6.39 3.72a8.12 8.12 0 0 0 3.68-6.36 2.59 2.59 0 0 0 -1.07-2.36z"/></clipPath><clipPath id="k" transform="translate(-79.37 -67.37)"><path d="m83.36 310.17 6.4 3.72a2.59 2.59 0 0 0 2.62-.25l-6.38-3.72a2.61 2.61 0 0 1 -2.64.25z"/></clipPath><clipPath id="l" transform="translate(-79.37 -67.37)"><path d="m109.61 276.27-6.4-3.72-4.31-2.45 6.4 3.72z"/></clipPath><clipPath id="m" transform="translate(-79.37 -67.37)"><path d="m90.05 282.62-6.4-3.72c-1.67 2.9-2.6 4.52-4.28 7.41l6.4 3.72z"/></clipPath><path d="m211.91 188.81c0 6.14 4.29 13.6 9.63 16.68l139.07 80.29c5.34 3.09 9.68.62 9.69-5.52l.3-102.9v-10c0-6.13-4.3-13.6-9.64-16.68l-139.04-80.33c-5.34-3.08-9.68-.61-9.69 5.53v10z" fill="#bfbeed" opacity=".2" transform="translate(-79.37 -67.37)"/><path d="m201 200.29c0 6.14 4.3 13.6 9.63 16.68l139.08 80.29c5.33 3.09 9.68.62 9.69-5.52l.29-102.9v-10c0-6.13-4.29-13.6-9.63-16.68l-139.06-80.33c-5.34-3.08-9.68-.61-9.7 5.53v10z" fill="#bfbeed" opacity=".2" transform="translate(-79.37 -67.37)"/><path d="m196.4 89.05-2.4 1.41c1.73-1 4.13-.86 6.78.67l2.43-1.42c-2.68-1.52-5.08-1.66-6.81-.66z" fill="#f4f4fa" transform="translate(-79.37 -67.37)"/><g clip-path="url(#a)"><path d="m200.75 91.13 2.43-1.42c-2.65-1.52-5.05-1.66-6.78-.66l-2.4 1.41c1.7-1 4.1-.86 6.75.67z" fill="#fe8786" transform="translate(-79.37 -67.37)"/></g><path d="m344.21 304.1 2.43-1.41c1.7-1 2.76-3.11 2.77-6.11l-2.41 1.42c0 3-1.09 5.11-2.79 6.1z" fill="#f4f4fa" transform="translate(-79.37 -67.37)"/><g clip-path="url(#b)"><path d="m344.21 304.1 2.43-1.41c1.7-1 2.76-3.11 2.77-6.11l-2.41 1.42c0 3-1.09 5.11-2.79 6.1z" fill="#d3d3f5" transform="translate(-79.37 -67.37)"/></g><path d="m267.92 119.33 2.43-1.41-.03 9.89-2.43 1.4z" fill="#ff6661"/><path d="m270.32 127.81-.28 101.4-2.43 1.42.28-101.42z" fill="#d3d3f5"/><path d="m258.43 102.89 2.43-1.42-137.06-79.12-2.42 1.41z" fill="#fe8786"/><path d="m347.3 186.7 2.43-1.41c0-6-4.24-13.41-9.5-16.45l-2.43 1.42c5.26 3.03 9.51 10.39 9.5 16.44z" fill="#f4f4fa" transform="translate(-79.37 -67.37)"/><g clip-path="url(#c)"><path d="m347.3 186.7 2.43-1.41c0-6-4.24-13.41-9.5-16.45l-2.43 1.42c5.26 3.03 9.51 10.39 9.5 16.44z" fill="#ff6661" transform="translate(-79.37 -67.37)"/></g><path d="m190.88 207.87c0 6 4.23 13.4 9.49 16.44l137.06 79.12c5.26 3 9.54.61 9.55-5.44l.29-101.41v-9.88c0-6-4.23-13.41-9.49-16.44l-137.03-79.14c-5.26-3-9.54-.6-9.55 5.45v9.89z" fill="#f4f4fa" transform="translate(-79.37 -67.37)"/><path d="m191.17 106.46 156.1 90.12v-9.88c0-6-4.23-13.41-9.49-16.44l-137.03-79.14c-5.26-3-9.54-.6-9.55 5.45z" fill="#fe4340" transform="translate(-79.37 -67.37)"/><path d="m327.45 175.25c0 1.3-.91 1.82-2 1.17a4.45 4.45 0 0 1 -2-3.51c0-1.3.9-1.82 2-1.17a4.47 4.47 0 0 1 2 3.51z" fill="#f4f4fa" transform="translate(-79.37 -67.37)"/><path d="m333.84 178.94c0 1.3-.91 1.82-2 1.17a4.47 4.47 0 0 1 -2-3.51c0-1.3.91-1.82 2-1.17a4.47 4.47 0 0 1 2 3.51z" fill="#f4f4fa" transform="translate(-79.37 -67.37)"/><path d="m340.23 182.63c0 1.3-.9 1.82-2 1.18a4.49 4.49 0 0 1 -2-3.52c0-1.29.91-1.82 2-1.17a4.46 4.46 0 0 1 2 3.51z" fill="#f4f4fa" transform="translate(-79.37 -67.37)"/><g opacity=".9"><path d="m260.35 131.53-70.33-40.61v97.55l70.33 40.6z" fill="#fff"/><path d="m260.35 131.53-70.33-40.61v36.86l70.33 40.61z" fill="#3a2c99" opacity=".9"/><path d="m256.54 174.15-49.01-28.3v9.35l49.01 28.29z" fill="#3a2c99" opacity=".9"/><path d="m256.54 187.13-49.01-28.3v9.34l49.01 28.3z" fill="#3a2c99" opacity=".9"/><path d="m256.54 200.1-49.01-28.29v9.34l49.01 28.3z" fill="#3a2c99" opacity=".9"/><path d="m256.54 213.08-49.01-28.29v9.34l49.01 28.29z" fill="#3a2c99" opacity=".9"/><path d="m282 215.08a8.91 8.91 0 0 0 -4-7c-2.22-1.29-4-.24-4 2.34a8.91 8.91 0 0 0 4 7c2.22 1.28 4 .23 4-2.34z" fill="#3a2c99" opacity=".9" transform="translate(-79.37 -67.37)"/><path d="m282 254a8.91 8.91 0 0 0 -4-7c-2.22-1.28-4-.23-4 2.34a8.91 8.91 0 0 0 4 7c2.22 1.3 4 .25 4-2.34z" fill="#3a2c99" opacity=".9" transform="translate(-79.37 -67.37)"/><path d="m282 241a8.92 8.92 0 0 0 -4-7c-2.22-1.28-4-.23-4 2.35a8.94 8.94 0 0 0 4 7c2.22 1.31 4 .26 4-2.35z" fill="#3a2c99" opacity=".9" transform="translate(-79.37 -67.37)"/><path d="m282 228.05a8.94 8.94 0 0 0 -4-7c-2.22-1.28-4-.23-4 2.35a8.92 8.92 0 0 0 4 7c2.22 1.28 4 .23 4-2.35z" fill="#3a2c99" opacity=".9" transform="translate(-79.37 -67.37)"/><path d="m183.87 131.19-67.74-39.11v-45.18l67.74 39.11z" fill="#fff"/><path d="m227.43 158.49-26.61-15.36a3.33 3.33 0 0 1 -1.5-2.61v-17.29c0-1 .67-1.36 1.5-.88l26.61 15.36a3.33 3.33 0 0 1 1.5 2.61v17.3c0 .96-.67 1.38-1.5.87z" fill="#3a2c99" opacity=".9" transform="translate(-79.37 -67.37)"/><path d="m147.52 81.76-25.87-14.93v-3.73l25.87 14.93z" fill="#ffde38"/><path d="m147.52 73.64-4.73-2.73v-1.86l4.73 2.73z" fill="#ffde38"/><path d="m126.52 75.88-4.87-2.81v-1.86l4.87 2.81z" fill="#ffde38"/><g fill="#fe4340" opacity=".9" transform="translate(-79.37 -67.37)"><path d="m234.21 149.23c0-1.67.91-1.72 2-1.13v-1l1.08.63v1a9 9 0 0 1 1.68 1.35v1.75c-.64-.45-1.44-.95-2.1-1.33s-.74-.4-.74.09v.13c0 .35.06.58.6.89l.64.37a4.11 4.11 0 0 1 1.87 3.54v.38c0 2.09-1 2-1.95 1.46v1l-1.08-.62v-1a7.37 7.37 0 0 1 -1.78-1.42v-1.75c.4.28 1.35.91 2.28 1.45.43.25.59.21.59-.14v-.18c0-.34-.09-.56-.53-.82l-.6-.34a4.06 4.06 0 0 1 -2-3.6z"/><path d="m239.76 150.45a14 14 0 0 1 3 1.4 4.6 4.6 0 0 1 2.27 4.09c0 1.6-1.47 2.3-2.09 2.59l2.09 1.21v2l-5.22-3v-1.94c.8-.16 3.29-1.06 3.29-1.93 0-.71-.33-1-1.14-1.44l-2.23-1.3z"/><path d="m245.52 153.84a11.66 11.66 0 0 1 3.27 1.57 3.78 3.78 0 0 1 1.89 3.22v.46c0 .84-.23 1.3-.84 1.2a3 3 0 0 1 .84 2.27v.33c0 1.4-.74 1.75-2 1.05a15.37 15.37 0 0 1 -3.14-2.14v-1.69l2.18 1.25c.77.45 1 .55 1 0v-.1c0-.54-.28-.72-.91-1.12l-1.63-1v-1.84l1.63.82c.68.36.93.51.93 0v-.12c0-.59-.42-.83-.93-1.13l-2.31-1.33z"/><path d="m251.26 156.85 4.8 2.77.47 1.17-2.29 6.21-2.05-1.18 2-5.32-2.9-1.68z"/></g><path d="m209.39 157.37a11.17 11.17 0 0 0 -5-8.75c-2.79-1.61-5-.29-5 2.94a11.16 11.16 0 0 0 5 8.75c2.75 1.61 5 .29 5-2.94z" fill="#bfbeed" transform="translate(-79.37 -67.37)"/><path d="m226.07 167a11.17 11.17 0 0 0 -5-8.75c-2.79-1.61-5-.29-5 2.94a11.16 11.16 0 0 0 5 8.75c2.75 1.61 5 .29 5-2.94z" fill="#bfbeed" transform="translate(-79.37 -67.37)"/><path d="m242.76 176.64a11.18 11.18 0 0 0 -5-8.76c-2.79-1.61-5-.29-5 2.94a11.12 11.12 0 0 0 5 8.75c2.74 1.61 5 .29 5-2.93z" fill="#bfbeed" transform="translate(-79.37 -67.37)"/><path d="m259.44 186.27a11.18 11.18 0 0 0 -5-8.76c-2.79-1.61-5-.29-5 2.94a11.14 11.14 0 0 0 5 8.75c2.74 1.61 5 .29 5-2.93z" fill="#bfbeed" transform="translate(-79.37 -67.37)"/><path d="m183.87 183.56-67.74-39.12v-45.17l67.74 39.11z" fill="#fff"/><path d="m227.43 210.86-26.61-15.37a3.3 3.3 0 0 1 -1.5-2.6v-17.3c0-1 .67-1.35 1.5-.87l26.61 15.36a3.33 3.33 0 0 1 1.5 2.61v17.31c0 .94-.67 1.34-1.5.86z" fill="#fe4340" opacity=".9" transform="translate(-79.37 -67.37)"/><path d="m147.52 134.13-25.87-14.94v-3.72l25.87 14.93z" fill="#ffde38"/><path d="m147.52 126.01-4.73-2.73v-1.86l4.73 2.72z" fill="#ffde38"/><path d="m126.52 128.25-4.87-2.81v-1.87l4.87 2.82z" fill="#ffde38"/><g transform="translate(-79.37 -67.37)"><g fill="#fe4340" opacity=".9"><path d="m235.61 205.82c0-1.46.8-1.51 1.76-1v-.82l.95.55v.86a7.7 7.7 0 0 1 1.46 1.19v1.52c-.56-.39-1.25-.82-1.83-1.16s-.65-.35-.65.08v.11c0 .31.06.51.53.79l.56.32a3.59 3.59 0 0 1 1.63 3.09v.33c0 1.83-.86 1.75-1.7 1.28v.83l-.95-.54v-.83a6.26 6.26 0 0 1 -1.56-1.25v-1.52c.35.24 1.19.79 2 1.26.37.22.51.19.51-.12v-.16a.71.71 0 0 0 -.46-.71l-.52-.3a3.55 3.55 0 0 1 -1.73-3.15z"/><path d="m240.43 206.92a10.4 10.4 0 0 1 2.86 1.37 3.32 3.32 0 0 1 1.65 2.82v.39c0 .74-.21 1.14-.74 1.06a2.58 2.58 0 0 1 .74 2v.29c0 1.23-.65 1.53-1.71.92a13.3 13.3 0 0 1 -2.75-1.87v-1.5l1.9 1.09c.68.4.85.49.85 0v-.09c0-.47-.24-.63-.8-1l-1.42-.89v-1.6l1.42.72c.6.32.82.44.82 0v-.09c0-.52-.37-.73-.82-1l-2-1.16z"/><path d="m245.67 215.32 2.3 1.33c.54.31.52 0 .52-.24v-.32a.79.79 0 0 0 -.42-.77l-.39-.23c-.28-.16-.38-.08-.38.24l-1.62-.94.19-4.59 4 2.33v1.76l-2.39-1.38v1a1 1 0 0 1 .57.13 5.64 5.64 0 0 1 .66.38 3.34 3.34 0 0 1 1.47 2.83v.95c0 1.38-.92 1.39-1.77.9a19.77 19.77 0 0 1 -2.74-1.83z"/><path d="m250.8 214.69c0-1.32.6-1.7 1.69-1.07l1.43.82a3.11 3.11 0 0 1 1.61 2.88v3.52c0 1.2-.57 1.61-1.62 1l-1.43-.82a3.24 3.24 0 0 1 -1.68-2.91zm2.19 4.86.36.21c.29.17.49.24.49-.3v-2.71a.84.84 0 0 0 -.42-.83l-.49-.29c-.46-.26-.44.2-.44.34v2.7a.9.9 0 0 0 .51.88z"/></g><path d="m235.26 197.32 1.82 1.05v.63l-.61-.35v2.07l-.62-.36v-2.06l-.59-.34z" fill="#bfbeed"/><path d="m237.51 199.34a1.44 1.44 0 0 1 .8 1.5c0 .73-.19.86-.8.51a1.41 1.41 0 0 1 -.79-1.44c0-.8.2-.91.79-.57zm0 1.48c.18.1.18.07.18-.34s0-.5-.18-.6-.17 0-.17.39.01.45.17.55z" fill="#bfbeed"/><path d="m238.43 200h.24l.09-.5.53.31v.55l.29.16v.5l-.29-.17v.63a.53.53 0 0 0 .12.42 1.2 1.2 0 0 0 .16.17v.42l-.48-.27a1 1 0 0 1 -.42-.95v-.77l-.24-.14z" fill="#bfbeed"/><path d="m239.7 201.91c0-.27.11-.51.56-.25l.32.18s0 0 0 0c0-.2-.07-.24-.2-.31l-.62-.32v-.42a1.61 1.61 0 0 1 .73.27 1.17 1.17 0 0 1 .71 1.1v1.32l-.5-.28-.12-.27c0 .06-.12.16-.36 0a1.08 1.08 0 0 1 -.52-.85zm.75.61c.14.07.13-.05.13-.05v-.22l-.16-.08c-.11 0-.1.05-.1.11a.24.24 0 0 0 .13.24z" fill="#bfbeed"/><path d="m241.4 200.67.62.36v2.06a.56.56 0 0 0 .12.42 2.21 2.21 0 0 0 .16.17v.41l-.45-.25a1 1 0 0 1 -.45-1z" fill="#bfbeed"/><path d="m243.27 201.94 1 .59a1.26 1.26 0 0 1 .7 1.15c0 .23-.11.48-.34.36a1.11 1.11 0 0 1 .4.81c0 .61-.25.69-.74.41l-1-.6zm1 1.57c.1.06.15 0 .15-.1a.32.32 0 0 0 -.15-.3l-.35-.2v.4zm0 1.12c.13.07.16 0 .16-.17a.38.38 0 0 0 -.16-.36l-.38-.22v.53z" fill="#bfbeed"/><path d="m245.15 205.06c0-.28.12-.51.56-.25l.33.18c0-.2-.07-.24-.2-.31l-.63-.32v-.42a1.5 1.5 0 0 1 .73.27 1.18 1.18 0 0 1 .72 1.1v1.32l-.5-.28-.12-.28c0 .07-.13.17-.36 0a1.09 1.09 0 0 1 -.53-.86zm.76.61c.13.07.13 0 .13 0v-.22l-.17-.08c-.1 0-.09.05-.09.11a.21.21 0 0 0 .13.19z" fill="#bfbeed"/><path d="m246.85 203.82.62.36v2a.58.58 0 0 0 .12.43s.14.15.16.16v.42l-.44-.25a1 1 0 0 1 -.46-1z" fill="#bfbeed"/><path d="m247.86 206.62c0-.28.11-.51.55-.26l.33.19c0-.2-.07-.24-.2-.31l-.63-.32v-.42a1.5 1.5 0 0 1 .73.27 1.17 1.17 0 0 1 .72 1.1v1.32l-.5-.29-.12-.27c0 .07-.13.17-.36 0a1.08 1.08 0 0 1 -.52-.86zm.75.61c.13.07.13 0 .13 0v-.23l-.17-.08c-.1 0-.09.05-.09.11a.21.21 0 0 0 .13.2z" fill="#bfbeed"/><path d="m249.55 206.32.52.29.1.26c.11-.06.21-.11.47 0a1 1 0 0 1 .49 1v1.26l-.62-.36v-1.28c0-.15 0-.21-.1-.25s-.2-.08-.24 0v1.33l-.62-.35z" fill="#bfbeed"/><path d="m251.87 207.63a3.47 3.47 0 0 1 .83.61v.43s-.2-.14-.48-.3-.29-.18-.29.31.06.49.29.63a5 5 0 0 0 .5.26v.43c-.24.06-.58-.2-.85-.35s-.56-.56-.56-1.33.23-.87.56-.69z" fill="#bfbeed"/><path d="m253.56 208.61c.56.33.77.53.77 1.18 0 .41-.19.42-.5.24l-.4-.23c0 .27.15.3.39.44a2.35 2.35 0 0 0 .48.23v.47a3.3 3.3 0 0 1 -.93-.43c-.43-.25-.56-.65-.56-1.34s.19-.88.75-.56zm.06.84s.09 0 .09-.06 0-.19-.11-.26-.17-.07-.17.22z" fill="#bfbeed"/><path d="m209.39 209.74a11.14 11.14 0 0 0 -5-8.75c-2.79-1.61-5-.3-5 2.93a11.16 11.16 0 0 0 5 8.76c2.75 1.61 5 .32 5-2.94z" fill="#bfbeed"/><path d="m226.07 219.37a11.14 11.14 0 0 0 -5-8.75c-2.79-1.61-5-.29-5 2.93a11.16 11.16 0 0 0 5 8.76c2.75 1.61 5 .29 5-2.94z" fill="#bfbeed"/><path d="m242.76 229a11.17 11.17 0 0 0 -5-8.75c-2.79-1.61-5-.29-5 2.93a11.16 11.16 0 0 0 5 8.76c2.74 1.61 5 .29 5-2.94z" fill="#bfbeed"/><path d="m259.44 238.63a11.18 11.18 0 0 0 -5-8.75c-2.79-1.61-5-.29-5 2.93a11.16 11.16 0 0 0 5 8.76c2.74 1.61 5 .29 5-2.94z" fill="#bfbeed"/><path d="m282 180.87c0-3.06 1.67-3.16 3.7-2.07v-1.8l2 1.14v1.83a15.87 15.87 0 0 1 3.07 2.47v3.21c-1.17-.82-2.63-1.73-3.84-2.43-1-.57-1.36-.74-1.36.15v.23c0 .66.11 1.09 1.1 1.66l1.17.67a7.54 7.54 0 0 1 3.43 6.48v.7c0 3.85-1.8 3.68-3.57 2.7v1.74l-2-1.14v-1.74a13.18 13.18 0 0 1 -3.28-2.62v-3.2c.73.5 2.49 1.67 4.19 2.65.79.46 1.08.39 1.08-.25v-.34a1.51 1.51 0 0 0 -1-1.49l-1.09-.64a7.42 7.42 0 0 1 -3.63-6.59z" fill="#fff"/><path d="m292.58 193.5c0-1.06.33-2.1 1.36-1.7a5 5 0 0 1 -1.36-4v-1.38c0-3 1.71-2.7 3.59-1.61l2.83 1.69a5.94 5.94 0 0 1 3.33 5.62v.93c0 .58-.18 2.17-1.37 1.67 1.26 1 1.37 2.9 1.37 3.81v1.62c0 3.46-1.57 3-3.35 2l-2.84-1.64c-3.48-2-3.59-4.51-3.59-5.87zm4.42-2.08.95.55c.8.47.86.2.86-.44v-.63a1.47 1.47 0 0 0 -.86-1.54l-.95-.55c-.55-.32-.86-.43-.86.54v.65a1.33 1.33 0 0 0 .86 1.42zm0 6.08.95.54c.8.47.86.12.86-.48v-.85a1.48 1.48 0 0 0 -.83-1.47l-1-.57c-.77-.44-.86-.07-.86.5v.83a1.46 1.46 0 0 0 .88 1.5z" fill="#fff"/><path d="m307.17 191.31 3.81 2.2-2.87 7.19 1.77 1v-2.84l.5-1.38 3.06 1.77v4.5l1.09.63v3.17h-1.09v2.87l-3.56-2.05v-2.87l-5.94-3.43-.63-2.21z" fill="#fff"/><path d="m315.14 196.33a26.53 26.53 0 0 1 5.56 2.58 8.41 8.41 0 0 1 4.18 7.51c0 2.93-2.71 4.21-3.85 4.74l3.85 2.22v3.7l-9.6-5.54v-3.54c1.49-.29 6.05-1.95 6.05-3.54 0-1.3-.61-1.79-2.09-2.65l-4.1-2.37z" fill="#fff"/></g></g><path d="m131.84 159.29 37.35-21.7a3.55 3.55 0 0 1 3.58.35l-37.36 21.71a3.53 3.53 0 0 0 -3.57-.36z" fill="#fe4340" transform="translate(-79.37 -67.37)"/><g clip-path="url(#d)" fill="#fe4340"><path d="m131.84 159.29 37.35-21.7a3.49 3.49 0 0 1 3.51.31l-37.36 21.71a3.5 3.5 0 0 0 -3.5-.32z" transform="translate(-79.37 -67.37)"/><path d="m135.34 159.61 37.36-21.71h.07l-37.36 21.71z" transform="translate(-79.37 -67.37)"/></g><path d="m275.4 307.16-37.35 21.7c6.95-4 11.28-12.6 11.31-24.74l37.36-21.7c-.04 12.13-4.36 20.7-11.32 24.74z" fill="#e5322b" transform="translate(-79.37 -67.37)"/><g clip-path="url(#e)"><path d="m249.36 304.12 37.36-21.7c0 12.13-4.36 20.7-11.32 24.74l-37.35 21.7c6.95-4.04 11.28-12.6 11.31-24.74z" fill="#e5322b" transform="translate(-79.37 -67.37)"/></g><path d="m170.19 163.96 37.36-21.71-.21 72.8-37.35 21.7z" fill="#e5322b"/><path d="m56.04 92.28 37.35-21.71 109.16 63.02-37.36 21.71z" fill="#ff6661"/><path d="m244.57 222.67 37.35-21.67a11 11 0 0 1 5 8.66l-37.35 21.71a11 11 0 0 0 -5-8.7z" fill="#fe4340" transform="translate(-79.37 -67.37)"/><g clip-path="url(#f)" fill="#fe4340"><path d="m244.57 222.67 37.35-21.67a8.14 8.14 0 0 1 1.71 1.33l-37.36 21.67a8.37 8.37 0 0 0 -1.7-1.33z" transform="translate(-79.37 -67.37)"/><path d="m246.27 224 37.36-21.7a11.07 11.07 0 0 1 3.29 7.33l-37.35 21.71a11.13 11.13 0 0 0 -3.3-7.34z" transform="translate(-79.37 -67.37)"/></g><g transform="translate(-79.37 -67.37)"><path d="m244.57 222.67a11 11 0 0 1 5 8.66l-.21 72.79c-.07 24.44-17.53 34.39-38.79 22.11l-41.86-24.17c-21.26-12.27-38.61-42.32-38.54-66.75l.2-72.79c0-3.19 2.27-4.48 5-2.87z" fill="#fe4340"/><path d="m169.65 158.6c-4.68 2.7-12.35 2.7-17 0s-4.68-7.14 0-9.84 12.36-2.71 17 0 4.69 7.13 0 9.84z" fill="#e5322b"/><path d="m261.1 211.13c-4.68 2.7-12.35 2.7-17 0s-4.68-7.14 0-9.84 12.36-2.71 17 0 4.69 7.13 0 9.84z" fill="#e5322b"/><path d="m150 106.69.18 46.38c0 1.61 1.06 3.22 3.18 4.44a16.71 16.71 0 0 0 15.28 0c2.12-1.24 3.16-2.87 3.15-4.49l-.17-46.36c0-8.09 2.24-14.07 6.23-16.39s10.31-1.35 17.33 2.67l11.94 6.82c18.7 10.71 34.56 38 34.64 59.5l.17 46.38c0 1.61 1.08 3.22 3.19 4.44a16.41 16.41 0 0 0 10 1.66 14.26 14.26 0 0 0 5.3-1.71 8.74 8.74 0 0 0 1.47-1.08 4.61 4.61 0 0 0 1.68-3.41l-.17-46.36c-.05-14.1-4.78-29.94-13.32-44.59s-19.95-26.59-32.18-33.59l-11.9-6.87a48.5 48.5 0 0 0 -20-6.64 31.09 31.09 0 0 0 -31.87 18.57 48.49 48.49 0 0 0 -4.13 20.63z" fill="#dadaf9"/><path d="m171.93 92.76a9.77 9.77 0 0 1 4.25-1.21c-2.92 2.89-4.55 8.21-4.52 15.06l.17 46.36c0 1.62-1 3.24-3.15 4.49a12.34 12.34 0 0 1 -2.8 1.18l-.19-49.49c-.03-8.09 2.24-14.06 6.24-16.39z" fill="#bfbeed"/><path d="m165.56 74.28a33.83 33.83 0 0 1 12-1.09 48.31 48.31 0 0 1 20 6.62l11.94 6.84c12.24 7 23.67 18.93 32.2 33.58s13.26 30.49 13.32 44.59l.17 46.87a14.26 14.26 0 0 0 5.3-1.71 8.74 8.74 0 0 0 1.47-1.08l-.22-46.9c-.06-14.1-4.79-29.93-13.31-44.59s-20-26.57-32.22-33.58l-11.93-6.83a48.48 48.48 0 0 0 -20-6.63 32.18 32.18 0 0 0 -18.72 3.91z" fill="#f4f4fa"/><path d="m175.47 237.83c0-6.21 4.33-8.74 9.72-5.66s9.81 10.62 9.81 16.83c0 4.09-1.87 6.57-4.7 6.92l.07 17.67-10-5.75-.06-17.67a21.16 21.16 0 0 1 -4.84-12.34z" fill="#19121b"/><path d="m110.31 370.87c.4-.94 3.76-1.83 4.75-2.16a55.22 55.22 0 0 1 7.65-1.47 3.34 3.34 0 0 1 1.57 0c1.28.4 1.77 2.62 1.48 3.73a3.26 3.26 0 0 1 -1.5 1.85 7.91 7.91 0 0 1 -3.65 1.18 7.32 7.32 0 0 0 -3.64 1c-1.45.91-2.51 1.92-4.3 1.86a2.9 2.9 0 0 1 -3-3.13 9.16 9.16 0 0 1 .4-1.94 7.79 7.79 0 0 1 .24-.92z" fill="#19121b"/><path d="m104.4 370.86c.08-.11.16-.23.23-.35a9.17 9.17 0 0 1 3.13-2.73 3.08 3.08 0 0 1 1.46-.64c1.23-.08 2.1 1.34 2 2.57 0 .56-.24 1.11-.32 1.68-.16 1.06 0 2.57.9 3.28a49.18 49.18 0 0 0 4.36 2.36 4.09 4.09 0 0 1 1.41 1.2c.8 1.22-.14 3.24-1.23 4a3.35 3.35 0 0 1 -2.35.37 8 8 0 0 1 -3.51-1.56 7.3 7.3 0 0 0 -3.41-1.65c-2.23-.38-5-.61-5.6-3.34a3 3 0 0 1 .42-2.15 38 38 0 0 1 2.51-3.04z" fill="#262028"/><path d="m112.61 314.09c1 1 4.71-.84 4.76-1.33 4.44-3.44 3.91 10.29 2.64 15.74-.68 2.94-.51 6-.91 9a68.92 68.92 0 0 1 -2.1 9.84 4.49 4.49 0 0 1 -.93 1.94c-1 1.1-2.77 1-4.24.75-1.28-.21-2.72-.57-3.35-1.71a4.82 4.82 0 0 1 -.37-2.33 30.59 30.59 0 0 0 -.39-6.35q-.68-3.31-1.34-6.63a57.46 57.46 0 0 1 -1-5.82 42.54 42.54 0 0 1 .49-10.63c.29-1.84-.32-5.29 2.29-5.67 2.39-.34 3.84 2.53 4.45 3.2z" fill="#19121b"/><path d="m117.89 341.44.73-3.08c-.29 1.01-.53 2.04-.73 3.08z" fill="#f7736a"/><path d="m116.47 346.17c-.76-1.05-2.64-1-3.27-.72s-4.09-1.84-5.15-2.64a4.42 4.42 0 0 1 -.07 1.06c0 .37 0 .73-.06 1.1 0 .72-.08 1.44-.1 2.16-.06 1.42-.08 2.83-.07 4.25s.06 2.88.14 4.32a26.27 26.27 0 0 1 .19 3.86 10.55 10.55 0 0 0 .21 2l.27 2.2c.18 1.46.37 2.92.55 4.39 0 .2 0 .41.08.61.14 1.12.19 2.93 1 3.76a4.24 4.24 0 0 0 3.54 1 4.38 4.38 0 0 0 2.57-1.5c.74-.87.64-2.2.65-3.3 0-4.62-.29-9.23-.3-13.85a56.53 56.53 0 0 1 .86-10.64z" fill="#19121b"/><path d="m119.45 315.05c.43-.22 2.61-1.31 2.59-1.91 0-.39 1.06-.72 1.34-.72a2.69 2.69 0 0 1 1.4.62 6.46 6.46 0 0 1 2.18 3 16.85 16.85 0 0 1 .87 5.1 96.68 96.68 0 0 1 -.4 15.5c-.27 2.59-.66 5.18-1.14 7.74-.25 1.28-.52 2.55-.81 3.82a2.82 2.82 0 0 1 -1.56 2.24c-2.2 1.39-6.15 1.2-7.72-1.28-1.69-2.68-1-6.84-1.53-9.85-.79-4.37-3.7-7.58-5-11.73a18.42 18.42 0 0 1 -.34-9c.24-1.47.7-5 2.2-5.85a5.11 5.11 0 0 1 5.26 1.33c1.21 1.2 1.1 1.79 2.66.99z" fill="#262028"/><path d="m104.69 300.22a15.36 15.36 0 0 0 -.21-2.3c-.64-3.67-1.74-7.25-2.2-10.95-.36-2.87-.62-6.45 1.66-8.67a6.6 6.6 0 0 1 1.25-.92c4.43-2.5 8.66.55 12.81 2a38.86 38.86 0 0 1 7.79 3.83 7 7 0 0 1 2.29 1.76 3.93 3.93 0 0 1 .52 3c-.14 1.41-.25 2.81-.35 4.22-.2 2.81-.35 5.63-.43 8.45-.18 5.63-.12 11.28.18 16.91.09 1.78.31 3.57.34 5.35 0 1.27-.84 1.87-2 2.18a40.21 40.21 0 0 1 -10.66 1.1 19.48 19.48 0 0 1 -10.21-2.8c-.77-.5-.4-1.29-.33-2.12.08-1 .15-2 .19-3 .08-2 .09-3.93 0-5.89 0-1.48-.4-2.9-.47-4.34-.08-1.74 0-3.49-.1-5.23-.06-.86-.04-1.72-.07-2.58z" fill="#35353f"/><path d="m123.29 352.18c-1.21 1.9-2.4 3.8-3.57 5.72q-1.39 2.28-2.75 4.57c-.7 1.18-1.38 2.36-2.06 3.55-.86 1.53-1.73 3.07-2.62 4.57-.66 1.12-1.16 2.72-2.46 3.28s-2.89-.31-3.8-1a7.36 7.36 0 0 1 -2.42-2.35c-.33-.85.18-2.17.47-3a56.48 56.48 0 0 1 2.77-6.21q2.57-5.1 5.45-10c1.83-3.14 3.29-6.39 4.94-9.62a1.32 1.32 0 0 1 1-.64c.49-.05 6.54 7.05 6.85 8.27-.02.03-.32.52-1.8 2.86z" fill="#262028"/><path d="m119.11 275.82c.16-1.1 1-.85.57-1.84a5.23 5.23 0 0 0 -1.62-2.18 3.89 3.89 0 0 0 -2.55-.85c-.32 0-.53.2-.84.2a18.8 18.8 0 0 0 -2.6 0c-.85.12-1.65.18-1.65 1.15a11.91 11.91 0 0 1 -.35 3.8 9.37 9.37 0 0 0 -.61 2 3.58 3.58 0 0 0 2.16 3.31 8.49 8.49 0 0 0 5 .44c.82-.12 2-.28 2.48-1.07a3.27 3.27 0 0 0 .13-2 11.13 11.13 0 0 1 -.12-2.96z" fill="#f9d5c3"/></g><g clip-path="url(#g)"><path d="m114.65 261.51 3.59-2.09a1 1 0 0 0 -1-.09l-3.59 2.09a1 1 0 0 1 1 .09z" fill="#7f89a6" transform="translate(-79.37 -67.37)"/></g><path d="m122.82 261.79a4.57 4.57 0 0 1 1.05 2.19c.28 1.86-.47 3.78-.07 5.63s-.38 5.86-3.91 6.91a12.45 12.45 0 0 1 -6.45-.64 9.12 9.12 0 0 1 -3.44-3.63c-7.38-11.73 7.81-16.55 12.82-10.46z" fill="#f9d5c3" transform="translate(-79.37 -67.37)"/><path d="m106.68 267c.23 1.91.65 3.81.83 5.73.31 3.24 0 6.61 1.11 9.65a10.26 10.26 0 0 0 3.35 4.5 11.28 11.28 0 0 0 1.41 1.32l2 1.81a1 1 0 0 0 .61.33.93.93 0 0 0 .62-.36 18.37 18.37 0 0 0 3.87-6.27 1.92 1.92 0 0 1 .17-.43c.06-.15.11-.29.16-.44s.21-.61.31-.91c.51-1.56.92-3.15 1.32-4.75s.89-3.25 1.35-4.87a8 8 0 0 0 .21-1.31 2.55 2.55 0 0 0 0-.73 2 2 0 0 0 -.08-.35c0-.07-.09-.16-.07-.24l-1.2.79a2 2 0 0 1 -2.45-.27c-1.64-1.73.58-3.6 2.28-3.76a2.69 2.69 0 0 0 1.65-.43 1.86 1.86 0 0 0 .45-1.17 7.78 7.78 0 0 0 -2.56-7 7.6 7.6 0 0 0 -2.14-1.46 8.86 8.86 0 0 0 -2.21-.56c-4.11-.58-8.94.72-10.53 5a13 13 0 0 0 -.49 5.92 1.23 1.23 0 0 1 .03.26z" fill="#35353f" transform="translate(-79.37 -67.37)"/><path d="m123 281.61c-1.52.59-2.88 1.36-3.39 2.94a5.31 5.31 0 0 0 .27 4.36 5.08 5.08 0 0 0 4 2.52 10 10 0 0 0 4.45-1.11c4-1.69 8-3.1 11.62-5.47 1.52-1 3.06-2.29 3.4-4.07a3.91 3.91 0 0 0 -1-3.39 3.16 3.16 0 0 0 -4.23-.59c-11.18 3.73-15.38 4.9-15.12 4.81z" fill="#35353f" transform="translate(-79.37 -67.37)"/><path d="m94.91 178.16 3.75-2.19-.03 12.39-3.75 2.18z" fill="#ffb700"/><path d="m91.59 176.24 3.75-2.18 3.32 1.91-3.75 2.19z" fill="#ffde38"/><path d="m94.91 178.16-.03 12.38-3.32-1.91.03-12.39z" fill="#ffc400"/><path d="m89.17 185.44 3.75-2.18-.03 12.39-3.76 2.18z" fill="#ffb700"/><path d="m85.85 183.52 3.75-2.18 3.32 1.92-3.75 2.18z" fill="#ffde38"/><path d="m89.17 185.44-.04 12.39-3.31-1.92.03-12.39z" fill="#ffc400"/><path d="m176.31 243.15-72.69 42.24a2.3 2.3 0 0 1 2.32.23l72.7-42.25a2.31 2.31 0 0 0 -2.33-.22z" fill="#ffc400" transform="translate(-79.37 -67.37)"/><g clip-path="url(#h)" fill="#ffc400"><path d="m105.94 285.62 72.7-42.25-72.69 42.25z" transform="translate(-79.37 -67.37)"/><path d="m105.93 285.61 72.69-42.25a2.29 2.29 0 0 0 -2.31-.21l-72.69 42.24a2.3 2.3 0 0 1 2.31.22z" transform="translate(-79.37 -67.37)"/></g><path d="m108.25 293.37 72.75-42.24a2.3 2.3 0 0 0 1-2.1 7.19 7.19 0 0 0 -3.26-5.66l-72.7 42.25a7.2 7.2 0 0 1 3.27 5.65 2.28 2.28 0 0 1 -1.06 2.1z" fill="#ffb700" transform="translate(-79.37 -67.37)"/><g clip-path="url(#i)"><g fill="#ffb700"><path d="m108.25 293.37 72.75-42.24a1.82 1.82 0 0 0 .77-1l-72.77 42.25a1.8 1.8 0 0 1 -.75.99z" transform="translate(-79.37 -67.37)"/><path d="m109 292.38 72.69-42.24a3.11 3.11 0 0 0 .18-1.11v-.03l-72.69 42.24v.06a3.31 3.31 0 0 1 -.18 1.08z" transform="translate(-79.37 -67.37)"/><path d="m109.21 291.21 72.69-42.21a5.91 5.91 0 0 0 -.27-1.63l-72.7 42.25a5.93 5.93 0 0 1 .28 1.59z" transform="translate(-79.37 -67.37)"/></g><path d="m108.93 289.59 72.7-42.25a8.13 8.13 0 0 0 -1-2l-72.63 42.24a7.46 7.46 0 0 1 .93 2.01z" fill="#ffc400" transform="translate(-79.37 -67.37)"/><path d="m108 287.58 72.69-42.25a7.28 7.28 0 0 0 -.93-1.12l-72.76 42.24a7.94 7.94 0 0 1 1 1.13z" fill="#ffde38" transform="translate(-79.37 -67.37)"/><path d="m107 286.45 72.7-42.24a6 6 0 0 0 -1.08-.84l-72.7 42.25a5.28 5.28 0 0 1 1.08.83z" fill="#ffde38" transform="translate(-79.37 -67.37)"/></g><path d="m105.94 285.62c-1.8-1-3.27-.21-3.28 1.87a7.21 7.21 0 0 0 3.26 5.65c1.81 1.05 3.28.21 3.29-1.87a7.2 7.2 0 0 0 -3.27-5.65z" fill="#8a781e" transform="translate(-79.37 -67.37)"/><path d="m95 304.92-6.4-3.72a2.59 2.59 0 0 1 1.08 2.36 8.13 8.13 0 0 1 -3.68 6.36l6.39 3.72a8.12 8.12 0 0 0 3.68-6.36 2.59 2.59 0 0 0 -1.07-2.36z" fill="#ffde38" transform="translate(-79.37 -67.37)"/><g clip-path="url(#j)"><path d="m95 304.92-6.4-3.72a2.59 2.59 0 0 1 1.08 2.36 8.25 8.25 0 0 1 -2.44 5.44l6.39 3.71a8.17 8.17 0 0 0 2.43-5.38 2.59 2.59 0 0 0 -1.06-2.41z" fill="#ffde38" transform="translate(-79.37 -67.37)"/><path d="m93.63 312.66-6.39-3.66a6.67 6.67 0 0 1 -1.25 1l6.39 3.72a6.34 6.34 0 0 0 1.25-1.06z" fill="#ffc400" transform="translate(-79.37 -67.37)"/></g><path d="m83.36 310.17 6.4 3.72a2.59 2.59 0 0 0 2.62-.25l-6.38-3.72a2.61 2.61 0 0 1 -2.64.25z" fill="#ffde38" transform="translate(-79.37 -67.37)"/><g clip-path="url(#k)" fill="#ffc400"><path d="m92.38 313.64-6.38-3.72 6.4 3.72z" transform="translate(-79.37 -67.37)"/><path d="m92.34 313.66-6.4-3.72a2.56 2.56 0 0 1 -2.58.23l6.4 3.72a2.56 2.56 0 0 0 2.58-.23z" transform="translate(-79.37 -67.37)"/></g><path d="m109.61 276.27-6.4-3.72-4.31-2.45 6.4 3.72z" fill="#ffde38" transform="translate(-79.37 -67.37)"/><g clip-path="url(#l)"><path d="m109.61 276.27-6.4-3.72-4.31-2.45 6.4 3.72z" fill="#ffde38" transform="translate(-79.37 -67.37)"/></g><path d="m6.4 222.66-6.4-3.72.07 25.55 6.4 3.72z" fill="#ffc400"/><path d="m25.92 206.45-6.39-3.72-15.25 8.8 6.4 3.72z" fill="#ffde38"/><path d="m90.05 282.62-6.4-3.72c-1.67 2.9-2.6 4.52-4.28 7.41l6.4 3.72z" fill="#ffde38" transform="translate(-79.37 -67.37)"/><g clip-path="url(#m)"><path d="m90.05 282.62-6.4-3.72c-1.67 2.9-2.6 4.52-4.28 7.41l6.4 3.72z" fill="#ffc400" transform="translate(-79.37 -67.37)"/></g><path d="m105.3 273.82 4.31 2.45.07 25.55-4.28 7.41-15.25 8.77-4.31-2.46-.07-25.54 4.28-7.41zm-12.92 39.82a8.12 8.12 0 0 0 3.68-6.36c0-2.34-1.67-3.28-3.7-2.11a8.07 8.07 0 0 0 -3.67 6.36c0 2.34 1.66 3.28 3.69 2.11z" fill="#ffb700" transform="translate(-79.37 -67.37)"/><path d="m98.64 173.43-4.02-2.34-2.74 1.59 4.02 2.34z" fill="#ffde38"/><path d="m93.99 169.39-4.03-2.33.01 1.81 4.02 2.34z" fill="#ffc400"/><path d="m95.88 168.3-4.02-2.34-1.9 1.1 4.03 2.33z" fill="#ffde38"/><path d="m93.99 171.21-4.02-2.34-2.17 1.26 4.02 2.33z" fill="#ffde38"/><path d="m87.55 174.93-4.03-2.34-2.17 1.26 4.02 2.34z" fill="#ffde38"/><path d="m91.81 169.22-4.02-2.33-4.28 2.47 4.03 2.33z" fill="#ffde38"/><path d="m87.54 171.69-4.03-2.33.01 3.23 4.03 2.34z" fill="#ffc400"/><path d="m85.37 174.37-4.02-2.34-1.75 1.01 4.02 2.34z" fill="#ffde38"/><path d="m87.54 171.69.01 3.24-2.18 1.26v-1.82l-1.75 1.01.04 12.76 15-8.66-.02-6.05-2.74 1.59-.02-6.72-1.89 1.09v1.82l-2.17 1.25-.01-3.24z" fill="#ffb700"/><path d="m83.62 175.38-4.02-2.34.03 12.77 4.03 2.33z" fill="#ffc400"/><path d="m74.47 180.89 3.75-2.18-.03 12.39-3.76 2.18z" fill="#ffb700"/><path d="m71.15 178.98 3.75-2.18 3.32 1.91-3.75 2.18z" fill="#ffde38"/><path d="m74.47 180.89-.04 12.39-3.31-1.91.03-12.39z" fill="#ffc400"/><path d="m150 262.47c-.2.2-.65.42-.78 0-.21-.66 0-1.41-.27-2-.11-.22-.33-.43-.57-.38s-.38.41-.41.69a8.92 8.92 0 0 1 -.38 2.06 14 14 0 0 1 -.69 1.4 4.42 4.42 0 0 0 -.57 1.8 9.06 9.06 0 0 1 -.43 2.24 2.47 2.47 0 0 0 -.24 1.32 2 2 0 0 0 .89 1.09 1.92 1.92 0 0 0 1.06.44 1.34 1.34 0 0 0 .91-.44 3.88 3.88 0 0 0 .6-.84c.37-.63.71-1.29 1.12-1.9s.89-1.13 1.33-1.7a3.8 3.8 0 0 0 1.07-3.17 5.43 5.43 0 0 0 -1-1.86 2.26 2.26 0 0 0 -1.45-1.08c-.16 0-.37 0-.43.18s.05.32.15.47a1.34 1.34 0 0 1 .09 1.68z" fill="#19121b" transform="translate(-79.37 -67.37)"/><path d="m148.56 267.16.16.09a2.16 2.16 0 0 1 1.07 1.14 2.13 2.13 0 0 1 -.25 1.48c-.21.47-.38 1-.59 1.45-.46 1-.93 2.05-1.4 3.07-.31.67-.62 1.34-1 2a32.83 32.83 0 0 1 -3.43 5.44 6.64 6.64 0 0 1 -2.12 2.07 2.43 2.43 0 0 1 -2.3-.55 4.29 4.29 0 0 1 -2.09-3.86 8.48 8.48 0 0 1 2-3.95q1.49-2.06 3.1-4c.53-.65 1.08-1.29 1.63-1.93s1-1.22 1.54-1.79c.28-.3.56-.59.85-.88a2 2 0 0 1 .6-.51.93.93 0 0 1 .69.08 7.37 7.37 0 0 1 1.54.65z" fill="#35353f" transform="translate(-79.37 -67.37)"/><path d="m128.48 102.14 1.97-1.14-.06 25.19-1.96 1.14z" fill="#e5e3e8"/><path d="m38.51 50.19 1.96-1.14 89.98 51.95-1.97 1.14z" fill="#e5e3e8"/><path d="m128.48 102.14-.05 25.19-89.98-51.95.06-25.19z" fill="#f9f7fc"/><path d="m131.57 138.33-3.38-2c2 .6 3.42-.58 3.42-3a9.78 9.78 0 0 0 -4.43-7.68c-2.45-1.42-4.44-.27-4.44 2.56a9.93 9.93 0 0 0 3.43 7l-3.39-2c-1.29-.74-2.34-.14-2.34 1.35v6.44l13.47 7.78v-6.38a5.2 5.2 0 0 0 -2.34-4.07z" fill="#231869" transform="translate(-79.37 -67.37)"/><path d="m99.48 132.86 1.97-1.14-.06 25.19-1.96 1.14z" fill="#e5e3e8"/><path d="m9.51 80.92 1.96-1.14 89.98 51.94-1.97 1.14z" fill="#e5e3e8"/><path d="m99.48 132.86-.05 25.19-89.98-51.95.06-25.18z" fill="#f9f7fc"/><path d="m94.61 161.93 3.71 1.56.13 3-3.84-2.38zm2 3.6 2.39 2.14-1.31 3.41-1.79-1.68zm3.28-3.91 1.63 4.83-2.35-.31-1.07-4.87zm.08 6.4 3 4.5-1.13 1.08-3.28-3.93zm3.26-1.63 1.1 2.39-2.7 1.43-1.63-3.16z" fill="#231869" transform="translate(-79.37 -67.37)"/><path d="m105.77 168.38 3.71 1.55.14 3-3.85-2.37zm2 3.59 2.43 2.14-1.31 3.41-1.79-1.68zm3.29-3.9 1.63 4.83-2.35-.31-1.07-4.87zm.08 6.4 3 4.5-1.14 1.08-3.29-3.93zm3.26-1.64 1.09 2.39-2.7 1.44-1.57-3.16z" fill="#231869" transform="translate(-79.37 -67.37)"/><path d="m116.94 174.82 3.71 1.56.13 3-3.84-2.38zm2 3.6 2.43 2.14-1.37 3.44-1.79-1.68zm3.28-3.9 1.63 4.82-2.35-.31-1.07-4.87zm.08 6.39 3 4.51-1.13 1.08-3.28-3.94zm3.26-1.63 1.09 2.39-2.69 1.43-1.58-3.16z" fill="#231869" transform="translate(-79.37 -67.37)"/><path d="m128.1 181.27 3.71 1.56.14 3-3.85-2.37zm2 3.59 2.43 2.14-1.31 3.41-1.79-1.68zm3.29-3.9 1.63 4.83-2.36-.31-1.06-4.87zm.08 6.4 3 4.5-1.12 1.08-3.3-3.94zm3.25-1.63 1.1 2.38-2.7 1.44-1.57-3.16z" fill="#231869" transform="translate(-79.37 -67.37)"/><path d="m139.27 187.72 3.71 1.55.13 3-3.84-2.38zm1.94 3.59 2.44 2.14-1.31 3.41-1.79-1.68zm3.29-3.9 1.63 4.82-2.35-.31-1.07-4.87zm.08 6.4 3 4.5-1.12 1.08-3.28-3.93zm3.26-1.64 1.09 2.39-2.69 1.44-1.58-3.16z" fill="#231869" transform="translate(-79.37 -67.37)"/><path d="m150.43 194.16 3.71 1.56.14 3-3.85-2.37zm1.95 3.59 2.43 2.15-1.31 3.4-1.79-1.68zm3.28-3.9 1.63 4.83-2.35-.31-1.06-4.87zm.08 6.4 3 4.5-1.12 1.08-3.29-3.93zm3.26-1.63 1.1 2.39-2.7 1.43-1.58-3.16z" fill="#231869" transform="translate(-79.37 -67.37)"/></svg>