<svg viewBox="0 0 500 500" xmlns="http://www.w3.org/2000/svg"><g fill="#ebebeb"><path d="m0 382.4h500v.25h-500z"/><path d="m290.21 389.21h25.46v.25h-25.46z"/><path d="m395.11 394.62h60.33v.25h-60.33z"/><path d="m222.46 389.33h62.33v.25h-62.33z"/><path d="m169 396.81h13.04v.25h-13.04z"/><path d="m194.71 396.81h59.38v.25h-59.38z"/><path d="m52.46 392.59h38.45v.25h-38.45z"/><path d="m237 337.8h-193.09a5.71 5.71 0 0 1 -5.7-5.71v-271.43a5.71 5.71 0 0 1 5.7-5.66h193.09a5.71 5.71 0 0 1 5.71 5.71v271.38a5.71 5.71 0 0 1 -5.71 5.71zm-193.09-282.6a5.46 5.46 0 0 0 -5.45 5.46v271.43a5.46 5.46 0 0 0 5.45 5.46h193.09a5.47 5.47 0 0 0 5.46-5.46v-271.43a5.47 5.47 0 0 0 -5.46-5.46z"/><path d="m453.31 337.8h-193.1a5.72 5.72 0 0 1 -5.71-5.71v-271.43a5.72 5.72 0 0 1 5.71-5.66h193.1a5.71 5.71 0 0 1 5.69 5.66v271.43a5.71 5.71 0 0 1 -5.69 5.71zm-193.1-282.6a5.47 5.47 0 0 0 -5.46 5.46v271.43a5.47 5.47 0 0 0 5.46 5.46h193.1a5.47 5.47 0 0 0 5.46-5.46v-271.43a5.47 5.47 0 0 0 -5.46-5.46z"/></g><path d="m195.96 295.67h-66.4l-4.03-46.5h66.4z" fill="#e6e6e6"/><path d="m199.4 295.67h-66.4l-4.03-46.5h66.4z" fill="#f0f0f0"/><path d="m142.08 285.68-2.22-26.53h46.43l2.22 26.53z" fill="#fff"/><path d="m203.1 295.67h7.79v86.73h-7.79z" fill="#e6e6e6"/><path d="m207.94 295.67h5.41v86.73h-5.41z" fill="#f0f0f0"/><path d="m137.94 295.67h75.41v9.57h-75.41z" fill="#f0f0f0" transform="matrix(-1 0 0 -1 351.29 600.91)"/><path d="m132.81 305.24h7.79v77.16h-7.79z" fill="#e6e6e6"/><path d="m137.65 305.24h5.41v77.16h-5.41z" fill="#f0f0f0"/><path d="m77.36 305.24h7.79v77.16h-7.79z" fill="#e6e6e6"/><path d="m82.2 305.24h5.41v77.16h-5.41z" fill="#f0f0f0"/><path d="m153.8 305.24h7.79v77.16h-7.79z" fill="#e6e6e6"/><path d="m158.63 305.24h5.41v77.16h-5.41z" fill="#f0f0f0"/><path d="m77.36 295.67h60.58v9.57h-60.58z" fill="#e6e6e6"/><path d="m129.51 79.41h234.33v130.46h-234.33z" fill="#e0e0e0"/><path d="m130.69 79.41h246.02v130.46h-246.02z" fill="#f5f5f5"/><path d="m192.49 25.65h122.42v237.98h-122.42z" fill="#fff" transform="matrix(0 1 -1 0 398.34 -109.06)"/><path d="m231.07 205.85 44.93-122.42h-74.15l-44.93 122.42z" fill="#f5f5f5"/><path d="m302.44 205.85 44.93-122.42h-55.94l-44.93 122.42z" fill="#f5f5f5"/><path d="m418.19 257.8h19.92v124.6h-19.92z" fill="#e6e6e6"/><path d="m432.87 382.4h5.24v-9.59h-10.73z" fill="#fafafa"/><path d="m234.53 257.8h19.92v124.6h-19.92z" fill="#e6e6e6"/><path d="m249.88 257.8h188.23v122.01h-188.23z" fill="#fafafa"/><path d="m434.55 297.17h-181.1v-34.46h181.1zm-180.1-1h179.1v-32.46h-179.1z" fill="#e6e6e6"/><path d="m402.67 279.44h-113.83c-5.28 0-10.37-4.26-14-11.7l-.34-.71h142.5l-.34.71c-3.66 7.44-8.66 11.7-13.99 11.7zm-126.53-11.44c3.38 6.63 8 10.41 12.7 10.41h113.83c4.72 0 9.32-3.78 12.7-10.41z" fill="#e6e6e6"/><path d="m255.12 382.4h-5.24v-9.59h10.73z" fill="#fafafa"/><path d="m434.55 336h-181.1v-34.42h181.1zm-180.1-1h179.1v-32.42h-179.1z" fill="#e6e6e6"/><path d="m402.67 318.31h-113.83c-5.28 0-10.37-4.27-14-11.7l-.34-.72h142.5l-.34.72c-3.66 7.39-8.66 11.7-13.99 11.7zm-126.53-11.42c3.38 6.63 8 10.42 12.7 10.42h113.83c4.72 0 9.32-3.79 12.7-10.42z" fill="#e6e6e6"/><path d="m434.55 374.9h-181.1v-34.46h181.1zm-180.1-1h179.1v-32.46h-179.1z" fill="#e6e6e6"/><path d="m402.67 357.17h-113.83c-5.28 0-10.37-4.26-14-11.69l-.34-.72h142.5l-.34.72c-3.66 7.43-8.66 11.69-13.99 11.69zm-126.53-11.41c3.38 6.63 8 10.41 12.7 10.41h113.83c4.72 0 9.32-3.78 12.7-10.41z" fill="#e6e6e6"/><path d="m120.98 274.28v2.42h-1.54l-1.28 18.97h-18.84l-1.27-18.97h-1.55v-2.42z" fill="#e6e6e6"/><path d="m114.78 227.21c-1.54-11.3-16.79-14.52-36.14-14.94-18.41-.39-24.31-6.9-24.31-6.9s.06 26.37 26.59 35.93c25.19 9.06 35.41-2.77 33.86-14.09z" fill="#e6e6e6"/><path d="m105.38 252.82c.32-4.64 7.74-13.18 25.59-9.3 12.9 2.81 17.7-3.88 17.7-3.88s-1.2 18.88-20.6 24.55c-18.43 5.39-23.26-3.19-22.69-11.37z" fill="#e6e6e6"/><path d="m109.45 281.4a.69.69 0 0 0 .53-.24c1.29-1.53.23-5.19-1.23-10.26-1.88-6.5-4.22-14.6-2.24-20.47a82.34 82.34 0 0 1 3.84-9.08c2.8-5.92 5.22-11 3.2-16.38a.69.69 0 1 0 -1.29.49c1.81 4.79-.38 9.43-3.16 15.31a85.59 85.59 0 0 0 -3.9 9.22c-2.11 6.28.29 14.61 2.22 21.29 1.14 4 2.32 8 1.51 9a.68.68 0 0 0 .08 1 .66.66 0 0 0 .44.12z" fill="#e6e6e6"/><ellipse cx="250" cy="416.24" fill="#f5f5f5" rx="193.89" ry="11.32"/><path d="m249.96 361.05h-142l-7.77-228.37h142z" fill="#d66d75"/><path d="m257.05 353.96h-142l-7.78-228.37h142z" fill="#d66d75"/><path d="m257.05 353.96h-142l-7.78-228.37h142z" fill="#fff" opacity=".3"/><ellipse cx="180.5" cy="191.09" fill="#d66d75" rx="39.27" ry="40.63" transform="matrix(.70103374 -.71312811 .71312811 .70103374 -82.31 185.84)"/><path d="m213.47 191.09a32 32 0 0 1 -3.45 15.7 31.59 31.59 0 0 1 -28.4 17.26 34.26 34.26 0 0 1 -29.56-17.26 33.49 33.49 0 0 1 -4.52-15.7 31.64 31.64 0 0 1 31.84-33 34.36 34.36 0 0 1 34.09 33z" fill="#fff"/><path d="m210 206.79a31.59 31.59 0 0 1 -28.4 17.26 34.26 34.26 0 0 1 -29.56-17.26 50.59 50.59 0 0 1 28.7-8.79 53.48 53.48 0 0 1 29.26 8.79z" fill="#d66d75" opacity=".6"/><ellipse cx="180.12" cy="179.81" fill="#d66d75" opacity=".6" rx="14.44" ry="14.94" transform="matrix(.70103374 -.71312811 .71312811 .70103374 -74.38 182.19)"/><path d="m228.52 271.26h-90.58l-.61-18h90.58z" fill="#fff"/><path d="m229.62 303.43h-90.59l-.61-18h90.59z" fill="#fff"/><path d="m194.66 287.91-21.83 3a1.52 1.52 0 0 0 -1.32 1.8l2.87 14.63a1.76 1.76 0 0 0 1.94 1.37l21.83-3a1.53 1.53 0 0 0 1.31-1.81l-2.86-14.63a1.75 1.75 0 0 0 -1.94-1.36zm-6.27 14.82-4 .53-.39-4.72a2.8 2.8 0 0 1 -1.63-2 2.49 2.49 0 0 1 2.16-3 2.86 2.86 0 0 1 3.16 2.23 2.45 2.45 0 0 1 -.78 2.33z" fill="#d66d75"/><path d="m192.5 287.12a1.56 1.56 0 0 1 -1.72-1.21l-.28-1.43a8.23 8.23 0 0 0 -8.62-6.56 7 7 0 0 0 -6.46 8.39l.32 1.65a1.34 1.34 0 0 1 -1.17 1.6 1.54 1.54 0 0 1 -1.72-1.21l-.27-1.39a9.85 9.85 0 0 1 8-11.75 11.2 11.2 0 0 1 12.8 8.67l.32 1.64a1.34 1.34 0 0 1 -1.2 1.6z" fill="#d66d75"/><path d="m214.67 328.64h-58.97l-.39-11.72h58.96z" fill="#d66d75"/><path d="m186.22 262.26a3.16 3.16 0 0 1 -3.18 3.29 3.44 3.44 0 0 1 -3.41-3.29 3.16 3.16 0 0 1 3.18-3.29 3.43 3.43 0 0 1 3.41 3.29z" fill="#263238"/><path d="m172 262.26a3.15 3.15 0 0 1 -3.18 3.29 3.43 3.43 0 0 1 -3.4-3.29 3.16 3.16 0 0 1 3.18-3.29 3.42 3.42 0 0 1 3.4 3.29z" fill="#263238"/><path d="m157.87 262.26a3.16 3.16 0 0 1 -3.18 3.29 3.42 3.42 0 0 1 -3.4-3.29 3.16 3.16 0 0 1 3.18-3.29 3.42 3.42 0 0 1 3.4 3.29z" fill="#263238"/><path d="m200.39 262.26a3.16 3.16 0 0 1 -3.18 3.29 3.42 3.42 0 0 1 -3.4-3.29 3.15 3.15 0 0 1 3.19-3.26 3.42 3.42 0 0 1 3.39 3.26z" fill="#263238"/><path d="m214.56 262.26a3.15 3.15 0 0 1 -3.18 3.29 3.43 3.43 0 0 1 -3.4-3.29 3.16 3.16 0 0 1 3.18-3.29 3.42 3.42 0 0 1 3.4 3.29z" fill="#263238"/><path d="m333.91 174.28c1.33 2.14 2.44 4.18 3.58 6.31s2.17 4.27 3.18 6.46a92.36 92.36 0 0 1 5.1 13.73c.18.59.31 1.22.46 1.83l.22.93.11.46.13.76a13.68 13.68 0 0 1 -.31 5.16 29.24 29.24 0 0 1 -3.12 7.45 59.22 59.22 0 0 1 -8.88 11.63l-4.21-3.18a111.39 111.39 0 0 0 5.63-12 24.86 24.86 0 0 0 1.53-5.63 4.46 4.46 0 0 0 -.08-1.77l-.4-1.22c-.16-.5-.31-1-.5-1.51a113.4 113.4 0 0 0 -5.27-12.08c-2-4-4.15-8-6.3-11.82z" fill="#ff8b7b"/><path d="m331.24 224.43-4.6 2.43 5.28 6.18s3.3-2.23 3.45-5.63z" fill="#ff8b7b"/><path d="m320.47 230.67 5.65 4.49 5.8-2.12-5.28-6.18z" fill="#ff8b7b"/><path d="m301.15 141.56c-.11.56-.5.95-.86.88s-.57-.59-.46-1.14.5-1 .87-.88.56.58.45 1.14z" fill="#263238"/><path d="m300.7 142.52a20.26 20.26 0 0 1 -3.62 4.22 3.29 3.29 0 0 0 2.56 1z" fill="#ff5652"/><path d="m298.9 162.14v-6.56l8.68 1s-.14 5.64-5 7.3z" fill="#ff8b7b"/><path d="m301.4 150.86 6.11 1.76.11 4.01-8.68-1.05z" fill="#ff8b7b"/><path d="m307.51 152.62-6.11-1.76-1.19 2.28a9.73 9.73 0 0 0 5.64 8.48 9.56 9.56 0 0 0 1.77-5z" opacity=".2"/><path d="m303.81 138.89a.34.34 0 0 0 .25-.56 3.32 3.32 0 0 0 -2.84-1.1.33.33 0 0 0 -.27.38.34.34 0 0 0 .38.28 2.63 2.63 0 0 1 2.24.89.34.34 0 0 0 .24.11z" fill="#263238"/><path d="m316.59 151.68c-1 5.15-1.62 12.28 2 15.71 0 0-1.4 5.22-11 5.22-10.51 0-5.05-4.58-5.05-4.58 4.37-1.36 4.33-6.33 3.33-10.33z" fill="#ff8b7b"/><path d="m320.54 170.83c.94-1.32.9-5.51-.1-6.25-1.61-1.19-8.52-1.47-17.81.67 1 4.06-1.15 6.18-1.15 6.18z" fill="#d66d75"/><path d="m351.8 408.24a2.29 2.29 0 0 1 -1.76-.1.68.68 0 0 1 -.16-.77.77.77 0 0 1 .43-.49c.95-.46 3.13.43 3.23.47a.16.16 0 0 1 .1.15.19.19 0 0 1 -.09.16 9.83 9.83 0 0 1 -1.75.58zm-1.15-1.13a.84.84 0 0 0 -.19.07.42.42 0 0 0 -.26.28c-.09.3 0 .4.06.43.38.32 1.78 0 2.77-.37a5.49 5.49 0 0 0 -2.38-.41z" fill="#d66d75"/><path d="m353.51 407.67h-.08c-.8-.23-2.5-1.44-2.52-2.23a.55.55 0 0 1 .43-.54.86.86 0 0 1 .73.06c.94.48 1.54 2.42 1.56 2.51a.16.16 0 0 1 0 .16.14.14 0 0 1 -.12.04zm-2-2.49h-.08c-.2.07-.2.17-.2.22 0 .47 1.14 1.42 2 1.8-.21-.56-.67-1.67-1.28-2a.58.58 0 0 0 -.43-.02z" fill="#d66d75"/><path d="m299.86 409.42c-.9 0-1.77-.13-2.06-.53a.63.63 0 0 1 0-.73.83.83 0 0 1 .53-.39c1.17-.32 3.63 1.08 3.73 1.14a.15.15 0 0 1 .08.17.16.16 0 0 1 -.13.14 12.2 12.2 0 0 1 -2.15.2zm-1.11-1.37a1 1 0 0 0 -.32 0 .51.51 0 0 0 -.33.23c-.12.21-.07.31 0 .37.33.46 2.1.47 3.41.28a7.61 7.61 0 0 0 -2.76-.88z" fill="#d66d75"/><path d="m302 409.22h-.07c-.85-.38-2.53-1.9-2.4-2.7 0-.19.16-.42.62-.46a1.2 1.2 0 0 1 .92.28 4.78 4.78 0 0 1 1.1 2.71.2.2 0 0 1 -.07.15.19.19 0 0 1 -.1.02zm-1.72-2.85h-.1c-.3 0-.32.14-.32.18-.08.48 1.06 1.68 1.93 2.2a3.87 3.87 0 0 0 -.93-2.17.88.88 0 0 0 -.59-.21z" fill="#d66d75"/><path d="m309.72 409.06h-7.03l-.7-16.29h7.03z" fill="#ff8b7b"/><path d="m361.35 405.8-6.87 1.49-6.91-15.17 6.88-1.49z" fill="#ff8b7b"/><path d="m353.81 406.6 7.73-1.67a.61.61 0 0 1 .68.34l2.68 5.82a1 1 0 0 1 -.74 1.44c-2.7.53-4.05.66-7.44 1.39-2.09.46-6.81 1.61-9.7 2.23s-3.88-2.15-2.75-2.66c5.05-2.31 7.15-4.34 8.52-6.23a1.71 1.71 0 0 1 1.02-.66z" fill="#263238"/><path d="m302.74 408.24h7.68a.62.62 0 0 1 .6.48l1.39 6.25a1 1 0 0 1 -1 1.26c-2.77-.05-6.77-.21-10.25-.21-4.08 0-7.59.22-12.37.22-2.89 0-3.69-2.92-2.48-3.19 5.5-1.2 10-1.33 14.75-4.26a3.27 3.27 0 0 1 1.68-.55z" fill="#263238"/><path d="m331.17 169c6.59 1.51 12 18.34 12 18.34l-13.17 10.07a28.93 28.93 0 0 1 -7-13c-2.33-8.82 1.43-16.97 8.17-15.41z" fill="#d66d75"/><path d="m331.17 169c6.59 1.51 12 18.34 12 18.34l-13.17 10.07a28.93 28.93 0 0 1 -7-13c-2.33-8.82 1.43-16.97 8.17-15.41z" opacity=".4"/><path d="m296.5 189.07c-1.64 1.77-3.28 3.35-5 5-.85.8-1.71 1.6-2.59 2.37l-1.33 1.17-.33.29-.57.46a8 8 0 0 1 -1.93 1.14 6.29 6.29 0 0 1 -2.44.5 6 6 0 0 1 -2.1-.37 5.91 5.91 0 0 1 -2-1.27 6 6 0 0 1 -1.56-2.59 6.81 6.81 0 0 1 -.29-1.49 10.1 10.1 0 0 1 0-1.78c.05-.48.11-.9.19-1.29a24.76 24.76 0 0 1 1.16-4 35.81 35.81 0 0 1 1.55-3.62c.64-1.27 1.25-2.2 1.86-3.26a81.65 81.65 0 0 1 8.45-11.46 77.42 77.42 0 0 1 10.25-9.72l3.68 3.79c-2.58 3.46-5.12 7.17-7.47 10.82a117.26 117.26 0 0 0 -6.4 11.25c-.43.94-1 2-1.27 2.76a26.83 26.83 0 0 0 -.93 2.7 17.45 17.45 0 0 0 -.57 2.52 3.94 3.94 0 0 0 0 .4c0 .08 0 .12 0-.09a2.78 2.78 0 0 0 -.13-.66 4.29 4.29 0 0 0 -1.15-1.86 4.9 4.9 0 0 0 -1.65-1 4.78 4.78 0 0 0 -1.68-.31 4.08 4.08 0 0 0 -1.61.31 3.68 3.68 0 0 0 -.5.25l.38-.35 1.21-1.1 2.39-2.24c1.58-1.49 3.17-3.08 4.67-4.56z" fill="#ff8b7b"/><path d="m325.52 181.36c3.58 3.54 4.75 10 5 15.6l-.58.45a28.93 28.93 0 0 1 -7-13c-.13-.52-.25-1-.34-1.57z" opacity=".2"/><path d="m289.51 176c-1.44 7.6-2.34 23.21 1.83 54.11h37.66c.26-5.77-3.37-33.95 2.2-61.16a99 99 0 0 0 -12.6-1.59 139.73 139.73 0 0 0 -16 0c-1.76.16-3.5.42-5 .69a10 10 0 0 0 -8.09 7.95z" fill="#d66d75"/><path d="m289.51 176c-1.44 7.6-2.34 23.21 1.83 54.11h37.66c.26-5.77-3.37-33.95 2.2-61.16a99 99 0 0 0 -12.6-1.59 139.73 139.73 0 0 0 -16 0c-1.76.16-3.5.42-5 .69a10 10 0 0 0 -8.09 7.95z" opacity=".4"/><path d="m295.27 187.27-6.8-1.63c-.21 4.12-.23 9.22.07 15.53 3.13-3.56 7.13-9.12 6.73-13.9z" opacity=".2"/><path d="m301.99 392.77.36 8.4h7.04l-.36-8.4z" opacity=".2"/><path d="m354.45 390.63-6.88 1.49 3.56 7.82 6.88-1.49z" opacity=".2"/><path d="m319.93 144.16c-1.8 6.74-2.52 10.78-6.68 13.58-6.25 4.26-14.05-.62-14.25-7.74-.22-6.43 2.77-16.38 10-17.74a9.52 9.52 0 0 1 10.93 11.9z" fill="#ff8b7b"/><path d="m304.15 144.41c-.34-.9-1.89-7.87-.43-9.68s18.11-.5 20.57 1.92c4.09 4 1.25 7.6-3.22 12.23-3.36 3.48-3.49 7.4-5.19 8-3 1-7.58.06-8.5-3.11s-3.23-9.36-3.23-9.36z" fill="#263238"/><path d="m322.27 128.72c-5.88-2.5-16.91.27-22.87-1.17a9.18 9.18 0 0 0 7.61 9.36 78.65 78.65 0 0 0 15 1.39c6.54-.3 5.26-7.45.26-9.58z" fill="#263238"/><path d="m323.19 136.86a11.21 11.21 0 0 0 6.23-1.19c1.1 2.66-4.95 3.39-6.23 1.19z" fill="#263238"/><path d="m307.35 144.69a7.91 7.91 0 0 1 -2 4.67c-1.54 1.69-3.14.63-3.41-1.42-.24-1.86.26-5 2.14-5.9s3.4.56 3.27 2.65z" fill="#ff8b7b"/><path d="m304.69 230.14s8 53.75 12.37 73.89c4.79 22.05 30.53 95 30.53 95l12.59-2.73s-18-59.46-22-90.29c-3.1-23.68-9.19-75.89-9.19-75.89z" fill="#d66d75"/><path d="m344.57 394.84c-.05 0 2.35 4.56 2.35 4.56l14.16-3.07-1.19-4.26z" fill="#263238"/><path d="m309.74 249.29c9.23 1.81 8.25 36.23 7.14 53.94-2.66-12.52-6.56-36.6-9.22-53.69a3.15 3.15 0 0 1 2.08-.25z" opacity=".3"/><path d="m291.34 230.14s-1 52.59-.2 74c.8 22.31 8.59 95.36 8.59 95.36h11.92s.43-71.75 1-93.66c.58-23.88 3.46-75.74 3.46-75.74z" fill="#d66d75"/><path d="m297.44 394.8c-.06 0 .67 4.94.67 4.94h14.49l.4-4.41z" fill="#263238"/><path d="m304.25 178.34c3.37 9.09-16.44 19.8-16.44 19.8l-8.58-11s5.77-11.42 12.77-16.56c8.65-6.34 9.68.84 12.25 7.76z" fill="#d66d75"/><path d="m304.25 178.34c3.37 9.09-16.44 19.8-16.44 19.8l-8.58-11s5.77-11.42 12.77-16.56c8.65-6.34 9.68.84 12.25 7.76z" opacity=".4"/><ellipse cx="381.87" cy="86.33" fill="#d66d75" rx="36.09" ry="23"/><path d="m368.85 97.91a10.11 10.11 0 0 1 -9.93-8.39 10.22 10.22 0 0 1 7.71-11.52 10.06 10.06 0 0 1 10.82 4.52l23.17-4.78a3.62 3.62 0 0 1 4.24 2.49 3.49 3.49 0 0 1 -2.67 4.31l-.6.12a.59.59 0 0 0 -.42.31.63.63 0 0 0 0 .52l.41 1.06a1.59 1.59 0 0 1 -.62 1.93 1.9 1.9 0 0 0 -.89 1.41 1.57 1.57 0 0 1 -1.21 1.39l-.47.1a1.56 1.56 0 0 1 -1.66-.8 1.95 1.95 0 0 0 -3.61.75 1.55 1.55 0 0 1 -1.2 1.38l-.47.1a1.57 1.57 0 0 1 -1.66-.8 2 2 0 0 0 -1.39-.94 1.59 1.59 0 0 1 -1.4-1.57v-1.14a.62.62 0 0 0 -.74-.58l-7.39 1.52a10.07 10.07 0 0 1 -7.95 8.4 10.36 10.36 0 0 1 -2.07.21zm-2-19a9.21 9.21 0 0 0 -7 10.42 9.11 9.11 0 0 0 18-.52v-.36l8.15-1.65a1.62 1.62 0 0 1 2 1.52v1.14a.59.59 0 0 0 .48.57 2.91 2.91 0 0 1 2.11 1.43.58.58 0 0 0 .59.32l.46-.1a.56.56 0 0 0 .42-.52 2.95 2.95 0 0 1 5.5-1.16.57.57 0 0 0 .58.32l.48-.1a.56.56 0 0 0 .41-.52 2.9 2.9 0 0 1 1.37-2.15.61.61 0 0 0 .21-.72l-.41-1.06a1.61 1.61 0 0 1 1.18-2.16l.61-.13a2.51 2.51 0 0 0 1.91-3.07 2.61 2.61 0 0 0 -3.08-1.77l-23.82 4.95-.18-.31a9 9 0 0 0 -9.92-4.35zm2 15.28a6.41 6.41 0 0 1 -3.51-1 6.41 6.41 0 1 1 4.81.92 6.37 6.37 0 0 1 -1.29.1zm0-11.81a6 6 0 0 0 -1.11.11 5.41 5.41 0 0 0 2.26 10.61 5.41 5.41 0 0 0 1.88-9.81 5.32 5.32 0 0 0 -2.99-.89z" fill="#fff"/><ellipse cx="352.5" cy="115.26" fill="#d66d75" opacity=".6" rx="11.86" ry="7.56"/><ellipse cx="333.63" cy="122.82" fill="#d66d75" opacity=".3" rx="4.87" ry="3.1"/></svg>