<svg viewBox="0 0 135 135" xmlns="http://www.w3.org/2000/svg"><circle cx="67.5" cy="67.5" r="67.5"/><g fill="#fff"><path d="m49.18 38.68a35 35 0 0 1 7.38.71 16.05 16.05 0 0 1 5.72 2.34 10.93 10.93 0 0 1 3.72 4.27 15.26 15.26 0 0 1 1.3 6.64 12.42 12.42 0 0 1 -1.94 7.13 14.13 14.13 0 0 1 -5.78 4.67 13.48 13.48 0 0 1 7.78 5.27 15.77 15.77 0 0 1 2.56 9.08 15.66 15.66 0 0 1 -1.65 7.42 14.54 14.54 0 0 1 -4.48 5.13 19.65 19.65 0 0 1 -6.44 2.93 28.85 28.85 0 0 1 -7.39 1h-27.46v-56.59zm-1.61 22.86a9 9 0 0 0 5.48-1.54c1.43-1.05 2.13-2.77 2.13-5.15a6.62 6.62 0 0 0 -.7-3.24 5.05 5.05 0 0 0 -1.92-2 7.52 7.52 0 0 0 -2.74-1 16.71 16.71 0 0 0 -3.2-.28h-11.62v13.21zm.69 24.09a15.7 15.7 0 0 0 3.49-.36 8.32 8.32 0 0 0 2.94-1.2 6 6 0 0 0 2-2.26 7.75 7.75 0 0 0 .75-3.67c0-2.91-.82-5-2.46-6.24a10.48 10.48 0 0 0 -6.47-1.9h-13.51v15.63z"/><path d="m87.65 85.44c1.68 1.64 4.12 2.47 7.28 2.47a10 10 0 0 0 5.87-1.72 7.21 7.21 0 0 0 3-3.63h9.91c-1.59 4.93-4 8.46-7.31 10.58a21.3 21.3 0 0 1 -11.86 3.18 23.58 23.58 0 0 1 -8.74-1.55 18.56 18.56 0 0 1 -6.62-4.4 20.31 20.31 0 0 1 -4.18-6.83 25 25 0 0 1 -1.47-8.74 24.09 24.09 0 0 1 1.51-8.57 19.88 19.88 0 0 1 10.96-11.43 21.34 21.34 0 0 1 8.55-1.67 19.35 19.35 0 0 1 9.1 2 18 18 0 0 1 6.35 5.46 22.36 22.36 0 0 1 3.61 7.77 29.3 29.3 0 0 1 .78 9.12h-29.53c0 3.24 1.14 6.31 2.79 7.96zm12.93-21.53c-1.34-1.48-3.6-2.28-6.37-2.28a9.66 9.66 0 0 0 -4.48.92 9 9 0 0 0 -2.85 2.26 8.15 8.15 0 0 0 -1.51 2.88 13.3 13.3 0 0 0 -.51 2.7h18.31a11 11 0 0 0 -2.59-6.48z"/><path d="m82.56 42.47h22.94v5.59h-22.94z"/></g></svg>