<svg viewBox="0 0 135 135" xmlns="http://www.w3.org/2000/svg"><circle cx="67.5" cy="67.5" fill="#fff" r="67.5"/><circle cx="67.5" cy="67.5" fill="#ea4c89" r="48"/><path d="m67.5 17.5a50 50 0 1 0 50 50 50 50 0 0 0 -50-50zm33 23a42.53 42.53 0 0 1 9.65 26.57c-1.41-.27-15.51-3.14-29.72-1.36-.32-.7-.6-1.46-.92-2.22-.87-2.06-1.84-4.17-2.82-6.18 15.76-6.31 22.91-15.57 23.84-16.76zm-33-15.67a42.61 42.61 0 0 1 28.31 10.78c-.76 1.09-7.21 9.71-22.4 15.4a231 231 0 0 0 -15.94-25.01 43.37 43.37 0 0 1 10.03-1.12zm-18.17 4a270.23 270.23 0 0 1 15.84 24.73 160 160 0 0 1 -39.48 5.21 42.89 42.89 0 0 1 23.64-29.88zm-24.56 38.72v-1.3a155.69 155.69 0 0 0 43.87-6.07c1.25 2.39 2.36 4.82 3.47 7.27l-1.68.48c-22.02 7.07-33.73 26.52-34.71 28.15a42.6 42.6 0 0 1 -10.95-28.53zm42.73 42.68a42.39 42.39 0 0 1 -26.19-9c.76-1.57 9.43-18.27 33.51-26.68.11 0 .16 0 .27-.11a176.38 176.38 0 0 1 9.11 32.38 42 42 0 0 1 -16.7 3.41zm23.81-7.32a184.25 184.25 0 0 0 -8.31-30.42 62.26 62.26 0 0 1 26.57 1.84 42.3 42.3 0 0 1 -18.26 28.58z" fill="#c32361" fill-rule="evenodd"/></svg>