<svg viewBox="0 0 135 135" xmlns="http://www.w3.org/2000/svg"><path d="m135 67.5a67.5 67.5 0 1 0 -78 66.68v-47.18h-17.19v-19.5h17.19v-14.87c0-16.92 10-26.26 25.45-26.26a103.77 103.77 0 0 1 15.11 1.32v16.61h-8.51c-8.39 0-11 5.2-11 10.54v12.66h18.72l-3 19.5h-15.72v47.17a67.51 67.51 0 0 0 56.95-66.67z" fill="#4676ed"/><path d="m93.77 87 3-19.51h-18.72v-12.65c0-5.34 2.61-10.54 11-10.54h8.51v-16.61a103.77 103.77 0 0 0 -15.11-1.32c-15.45 0-25.45 9.34-25.45 26.26v14.87h-17.19v19.5h17.19v47.17a68.28 68.28 0 0 0 21.1 0v-47.17z" fill="#fff"/></svg>