<svg viewBox="0 0 135 135" xmlns="http://www.w3.org/2000/svg"><circle cx="67.5" cy="67.5" fill="#fee712" r="67.5"/><path d="m68.14 102a56.68 56.68 0 0 1 -8.54-.51 1.44 1.44 0 0 0 -1.13.28c-5.62 3.94-11.23 7.89-17 11.56-.71.45-1.44.85-2.17 1.26a2.4 2.4 0 0 1 -.83.28c-.93.13-1.47-.42-1.28-1.34.35-1.62.83-3.2 1.28-4.79 1.15-4 2.29-8 3.45-12 .1-.35.07-.52-.3-.7a44.33 44.33 0 0 1 -14.26-11.19 32.46 32.46 0 0 1 -7.46-16 30.31 30.31 0 0 1 3.48-19.57 39.87 39.87 0 0 1 13.62-14.35 53.38 53.38 0 0 1 19.83-7.68 59.78 59.78 0 0 1 16-.7 53.59 53.59 0 0 1 27.55 10.06 36.79 36.79 0 0 1 12.48 15.22c4.25 10 3.36 19.74-2.3 29a40.6 40.6 0 0 1 -14.71 13.83 54.14 54.14 0 0 1 -18.37 6.49 58.5 58.5 0 0 1 -9.34.85z"/><g fill="#fee712"><path d="m90.42 61.54a2.36 2.36 0 0 1 .32-.44q3.54-3.56 7.09-7.1a2.33 2.33 0 0 1 3-.39 2.46 2.46 0 0 1 .59 4c-1.94 1.93-3.87 3.88-5.82 5.8-.27.27-.26.42 0 .71q3.24 4.26 6.46 8.55a2.77 2.77 0 1 1 -4.37 3.39q-2.88-3.8-5.75-7.61a1.39 1.39 0 0 0 -.15-.19c-.22-.22-.28-.65-.63-.67s-.91 1-.91 1.29v5.71a2.7 2.7 0 0 1 -2.25 2.68 2.79 2.79 0 0 1 -3.24-2.77c0-6.28 0-12.57 0-18.85a2.76 2.76 0 1 1 5.52 0v5.41.38z"/><path d="m57.36 72.5c-1.28 0-2.56 0-3.84 0a.46.46 0 0 0 -.53.36c-.32.91-.68 1.8-1 2.7a2.47 2.47 0 0 1 -3 1.73c-1.99-.29-2.63-1.29-2.22-3.29a25 25 0 0 1 1.23-3.53q2.81-7.41 5.63-14.82a4.05 4.05 0 0 1 3.1-2.73 3.94 3.94 0 0 1 4.27 2.59c1 2.7 2.06 5.41 3.09 8.11 1.15 3.05 2.32 6.09 3.47 9.13a6 6 0 0 1 .44 2.64 1.77 1.77 0 0 1 -1.21 1.61 4.1 4.1 0 0 1 -1.73.29 2.27 2.27 0 0 1 -2.29-1.64c-.29-.94-.71-1.83-1-2.76a.52.52 0 0 0 -.58-.42c-1.3.05-2.57.03-3.83.03z"/><path d="m38.2 66.66c0-2.62 0-5.24 0-7.87 0-.41-.07-.56-.53-.55-1.23 0-2.46 0-3.69 0a2.71 2.71 0 1 1 0-5.41q7 0 14 0a2.71 2.71 0 0 1 .76 5.33 2.89 2.89 0 0 1 -.83.08c-1.22 0-2.45 0-3.68 0-.41 0-.49.13-.49.5q0 7.84 0 15.69a2.71 2.71 0 0 1 -1.9 2.79 2.75 2.75 0 0 1 -3.64-2.64c-.01-2.64 0-5.28 0-7.92z"/><path d="m69.47 65c0-3.11 0-6.23 0-9.35a2.77 2.77 0 0 1 2.53-2.79 2.82 2.82 0 0 1 3 2.08 3.5 3.5 0 0 1 .09 1q0 7.7 0 15.4c0 .43.11.54.54.54h5.41a2.56 2.56 0 0 1 2.59 2.38 2.53 2.53 0 0 1 -2.42 2.65c-3.11 0-6.23 0-9.34 0a2.51 2.51 0 0 1 -2.41-2.55c0-3.13.01-6.26.01-9.36z"/></g><path d="m57.35 59.75c.95 2.68 1.85 5.24 2.77 7.85h-3.49c-.54 0-1.09 0-1.63 0-.35 0-.4-.07-.28-.4q1.06-3 2.11-6c.17-.41.32-.86.52-1.45z"/></svg>