<svg viewBox="0 0 135 135" xmlns="http://www.w3.org/2000/svg"><circle cx="67.5" cy="67.5" fill="#68b82b" r="67.5"/><path d="m113.28 64c0-20.58-20.63-37.33-46-37.33s-46 16.75-46 37.33c0 18.45 16.37 33.91 38.47 36.83 1.5.32 3.54 1 4 2.27a9.28 9.28 0 0 1 .15 4.16s-.54 3.24-.65 3.93c-.2 1.17-.93 4.55 4 2.48s26.52-15.58 36.17-26.67c6.67-7.31 9.86-14.73 9.86-23" fill="#fff"/><g fill="#68b82b"><path d="m57.93 54.06h-3.22a.9.9 0 0 0 -.9.9v20.04a.89.89 0 0 0 .9.89h3.22a.89.89 0 0 0 .9-.89v-20a.9.9 0 0 0 -.9-.9"/><path d="m80.14 54.06h-3.22a.9.9 0 0 0 -.9.9v11.9l-9.18-12.4-.07-.09h-.05-.05-3.81a.89.89 0 0 0 -.86.63v20a.89.89 0 0 0 .89.89h3.23a.9.9 0 0 0 .88-.89v-11.9l9.19 12.42a1 1 0 0 0 .23.22h.06a.85.85 0 0 0 .23 0h3.22a.89.89 0 0 0 1.07-.74v-20a.9.9 0 0 0 -.9-.9"/><path d="m50.16 70.88h-8.77v-15.88a.9.9 0 0 0 -.9-.9h-3.22a.9.9 0 0 0 -.9.9v20a.91.91 0 0 0 .25.62.9.9 0 0 0 .62.24h12.92a.89.89 0 0 0 .89-.89v-3.2a.89.89 0 0 0 -.89-.89"/><path d="m98 59.08a.89.89 0 0 0 .9-.89v-3.19a.9.9 0 0 0 -.9-.9h-12.93a.88.88 0 0 0 -.62.26.9.9 0 0 0 -.24.62v20.02a.87.87 0 0 0 .25.62.87.87 0 0 0 .62.25h12.92a.89.89 0 0 0 .9-.89v-3.21a.89.89 0 0 0 -.9-.89h-8.81v-3.39h8.81a.9.9 0 0 0 .9-.9v-3.22a.9.9 0 0 0 -.9-.9h-8.81v-3.39z"/></g></svg>