<svg viewBox="0 0 135 135" xmlns="http://www.w3.org/2000/svg"><circle cx="67.5" cy="67.5" fill="#4467ad" r="67.5"/><g fill="#fefefe"><path d="m72.72 58.29c1.11-1.24 2-2.51 3.16-3.58a17.3 17.3 0 0 1 12.48-4.92 28.74 28.74 0 0 1 7.84 1c5.86 1.69 9.27 5.73 10.89 11.45a48 48 0 0 1 1.45 13.12v28c0 .88-.24 1.1-1.1 1.1q-7.2-.06-14.41 0c-.84 0-1-.26-1-1q-.03-13.46-.03-26.75a24.16 24.16 0 0 0 -.77-6.61c-1.15-4-4-6-8.17-5.79-5.7.3-8.66 3.12-9.39 8.91a34.19 34.19 0 0 0 -.25 4.17v25.88c0 .86-.21 1.12-1.09 1.11q-7.26-.06-14.52 0c-.77 0-1-.21-1-1q0-25.64 0-51.25c0-.85.28-1 1.08-1h13.78c.85 0 1.07.26 1 1.06.02 2.02.05 4.06.05 6.1z"/><path d="m46.4 77.81v25.36c0 .94-.23 1.22-1.2 1.21-4.8 0-9.6 0-14.4 0-.77 0-1-.19-1-1q0-25.67 0-51.33c0-.71.17-1 .92-1h14.62c.93 0 1.06.35 1.06 1.15-.01 8.57 0 17.09 0 25.61z"/><path d="m47.73 34.14a9.6 9.6 0 1 1 -9.58-9.54 9.62 9.62 0 0 1 9.58 9.54z"/></g></svg>