<svg viewBox="0 0 135 135" xmlns="http://www.w3.org/2000/svg" xmlns:xlink="http://www.w3.org/1999/xlink"><radialGradient id="a" cx="104.44" cy="799.04" gradientTransform="matrix(800 0 0 -800 -83515.33 639352.63)" gradientUnits="userSpaceOnUse" r=".14"><stop offset="0" stop-color="#5697fb"/><stop offset=".61" stop-color="#8936f9"/><stop offset=".93" stop-color="#dd537e"/><stop offset="1" stop-color="#e06f62"/></radialGradient><circle cx="67.5" cy="67.5" fill="#fff" r="67.5"/><g fill-rule="evenodd"><path d="m67.5 17.5c-28.73 0-51 21-51 49.47a48.36 48.36 0 0 0 16 36.59 4.12 4.12 0 0 1 1.37 2.91l.27 9.07a4.09 4.09 0 0 0 5.73 3.61l10.13-4.47a4.07 4.07 0 0 1 2.73-.2 55.55 55.55 0 0 0 14.76 2c28.73 0 51-21 51-49.47s-22.26-49.51-50.99-49.51z" fill="url(#a)"/><path d="m36.87 81.44 15-23.77a7.65 7.65 0 0 1 11.06-2l11.91 8.93a3.06 3.06 0 0 0 3.69 0l16.08-12.26a2.43 2.43 0 0 1 3.52 3.22l-15 23.77a7.65 7.65 0 0 1 -11.06 2l-11.9-8.89a3.06 3.06 0 0 0 -3.69 0l-16.09 12.22a2.43 2.43 0 0 1 -3.52-3.22z" fill="#fff"/></g></svg>