<?xml version="1.0" standalone="no"?>
<!DOCTYPE svg PUBLIC "-//W3C//DTD SVG 20010904//EN"
 "http://www.w3.org/TR/2001/REC-SVG-20010904/DTD/svg10.dtd">
<svg version="1.0" xmlns="http://www.w3.org/2000/svg"
 width="1000.000000pt" height="999.000000pt" viewBox="0 0 1000.000000 999.000000"
 preserveAspectRatio="xMidYMid meet">

<g transform="translate(0.000000,999.000000) scale(0.100000,-0.100000)"
fill="#000000" stroke="none">
<path d="M4735 9980 c-1540 -91 -2915 -849 -3806 -2098 -598 -837 -919 -1846
-919 -2887 0 -1517 681 -2937 1865 -3891 1154 -929 2668 -1295 4127 -999 412
84 783 210 1173 399 239 116 363 187 595 341 1158 770 1951 2008 2161 3378 53
343 72 762 50 1087 -112 1659 -1002 3116 -2426 3973 -558 336 -1237 573 -1880
657 -309 40 -670 56 -940 40z m755 -125 c795 -83 1543 -350 2208 -788 692
-457 1281 -1119 1660 -1868 265 -523 426 -1062 499 -1674 25 -215 25 -845 0
-1060 -163 -1364 -827 -2534 -1907 -3362 -1168 -895 -2723 -1208 -4164 -839
-414 107 -852 284 -1211 491 -134 77 -417 265 -536 356 -923 706 -1573 1729
-1814 2854 -79 373 -100 586 -100 1030 0 367 6 464 46 735 185 1250 885 2418
1904 3175 766 570 1664 902 2610 965 183 12 621 4 805 -15z"/>
<path d="M4815 9784 c-515 -31 -888 -99 -1320 -240 -1225 -402 -2245 -1298
-2811 -2469 -241 -499 -385 -1004 -451 -1587 -25 -216 -25 -770 0 -986 70
-613 222 -1132 487 -1657 334 -663 801 -1225 1391 -1672 645 -490 1421 -812
2219 -922 247 -34 406 -44 670 -44 264 0 423 10 667 44 1409 194 2656 1011
3415 2234 112 181 284 521 358 705 168 423 275 851 327 1311 24 218 24 770 0
988 -67 589 -216 1104 -467 1616 -432 883 -1119 1604 -1983 2085 -566 314
-1212 513 -1862 574 -162 15 -529 27 -640 20z m1100 -3209 c156 -43 261 -195
273 -392 l5 -93 -70 0 -70 0 -5 83 c-11 189 -107 284 -286 280 -86 -1 -143
-25 -191 -79 -61 -70 -71 -112 -71 -301 l0 -163 373 0 c367 0 373 0 417 -22
30 -15 53 -37 67 -63 23 -40 23 -42 21 -427 -3 -375 -4 -387 -24 -415 -11 -15
-36 -38 -54 -51 l-34 -23 -491 3 -491 3 -29 23 c-43 34 -64 71 -71 125 l-7 47
-661 0 -661 0 -60 29 c-194 91 -236 331 -86 482 94 93 54 89 813 89 620 0 658
1 658 18 0 79 68 167 138 178 l42 7 0 167 c0 139 3 179 20 232 48 156 167 258
323 277 76 8 146 4 212 -14z m-3423 -1984 c85 -27 165 -97 199 -173 18 -42 24
-76 27 -165 5 -147 -17 -227 -82 -300 -82 -91 -191 -123 -418 -123 l-128 0 0
-210 0 -210 -95 0 -95 0 0 606 0 606 263 -4 c236 -4 269 -7 329 -27z m3055
-252 c83 -154 154 -281 158 -281 5 0 76 126 158 281 l149 281 79 0 c43 0 79
-2 79 -5 0 -3 36 -271 80 -597 44 -325 80 -596 80 -600 0 -5 -44 -7 -97 -6
l-98 3 -51 405 c-28 223 -53 416 -55 430 -3 19 -39 -40 -152 -251 -82 -152
-154 -284 -160 -293 -10 -14 -37 28 -172 276 -123 225 -161 287 -164 268 -2
-14 -27 -207 -55 -430 l-51 -405 -97 -3 c-57 -2 -98 1 -98 7 0 5 36 274 80
598 44 323 80 591 80 596 0 4 36 7 79 7 l79 0 149 -281z m-2262 -81 c56 -18
119 -84 139 -146 23 -68 35 -203 36 -380 0 -138 1 -144 25 -167 13 -14 36 -25
51 -25 26 0 27 -1 20 -52 -14 -103 -11 -100 -75 -93 -87 10 -118 23 -155 66
l-34 40 -46 -34 c-81 -63 -206 -86 -304 -56 -95 28 -162 124 -162 232 0 163
133 264 395 298 l97 13 -5 44 c-10 91 -70 128 -195 119 -52 -4 -91 -14 -137
-35 l-63 -30 -7 71 c-6 62 -5 72 11 84 23 17 117 52 169 63 52 12 189 5 240
-12z m860 -10 l60 -24 -2 -39 c-2 -22 -6 -60 -9 -83 -5 -40 -7 -42 -22 -29
-44 38 -108 61 -187 65 -72 3 -84 1 -115 -20 -31 -21 -35 -30 -38 -71 -4 -63
17 -81 149 -131 119 -45 174 -74 211 -113 75 -79 78 -220 6 -308 -30 -36 -99
-76 -152 -89 -63 -15 -230 -7 -301 15 -109 33 -113 36 -104 106 4 32 8 67 8
79 1 19 4 19 69 -13 169 -84 352 -59 352 49 0 40 -50 89 -115 113 -191 70
-263 114 -292 182 -7 18 -13 59 -13 91 0 115 71 203 192 237 79 22 227 14 303
-17z m647 21 c29 -7 72 -20 96 -30 39 -17 43 -22 38 -46 -3 -16 -8 -52 -11
-81 -6 -48 -9 -52 -24 -39 -43 38 -107 61 -186 65 -72 3 -84 1 -115 -20 -30
-20 -35 -30 -38 -69 -4 -64 15 -83 133 -127 178 -68 234 -105 266 -176 36 -80
16 -200 -44 -264 -24 -27 -97 -65 -141 -76 -16 -4 -75 -7 -131 -7 -81 0 -118
6 -181 26 -43 14 -84 28 -91 33 -8 5 -9 27 -1 87 l10 80 66 -33 c88 -43 184
-59 256 -43 67 15 91 39 91 93 0 49 -37 86 -111 113 -191 70 -262 115 -291
182 -38 92 1 227 82 283 79 54 210 74 327 49z m2163 -13 c127 -54 165 -168
165 -497 0 -167 0 -170 25 -194 13 -14 36 -25 51 -25 l27 0 -7 -61 c-11 -91
-9 -89 -79 -82 -81 7 -123 28 -157 74 l-27 38 -19 -20 c-24 -27 -93 -67 -136
-80 -18 -5 -63 -10 -101 -10 -152 -1 -255 98 -256 246 -1 62 34 140 79 178 73
62 205 108 347 122 l70 7 -8 50 c-9 57 -29 85 -76 104 -65 28 -200 10 -280
-36 -18 -11 -34 -16 -37 -12 -2 4 -7 37 -11 74 l-7 66 42 22 c23 12 74 30 113
41 87 23 220 21 282 -5z m964 -6 c64 -28 122 -92 153 -169 21 -53 23 -72 26
-364 l3 -308 -88 3 -88 3 -5 290 c-4 257 -7 294 -24 328 -29 59 -69 81 -154
86 -85 4 -144 -14 -192 -59 l-30 -28 0 -311 0 -311 -90 0 -90 0 0 425 0 425
80 0 80 0 0 -28 c0 -16 3 -31 6 -34 3 -4 27 7 52 23 102 62 254 75 361 29z"/>
<path d="M3835 5593 c-149 -78 -153 -282 -6 -360 l44 -23 649 0 648 0 0 200 0
200 -652 0 c-575 -1 -657 -3 -683 -17z m215 -68 c0 -25 3 -45 6 -45 3 0 26 15
51 32 43 32 45 32 59 13 8 -10 14 -22 14 -26 0 -4 -22 -24 -50 -44 -27 -20
-50 -40 -50 -44 0 -4 23 -24 50 -44 55 -41 56 -43 35 -71 -13 -18 -16 -17 -56
13 -24 17 -47 31 -51 31 -4 0 -8 -21 -8 -46 0 -44 -1 -45 -27 -42 -25 3 -28 7
-31 46 -2 23 -5 42 -8 42 -3 0 -23 -15 -45 -32 l-40 -33 -19 25 -18 24 54 40
c29 23 54 43 54 46 0 3 -22 23 -50 44 -53 40 -60 56 -35 76 15 13 14 14 83
-36 22 -16 22 -16 22 30 0 44 1 46 30 46 29 0 30 -2 30 -45z m460 0 c0 -25 3
-45 6 -45 3 0 23 14 44 30 45 36 51 37 69 8 12 -20 11 -23 -15 -42 -16 -12
-40 -31 -54 -43 l-25 -22 30 -25 c17 -13 41 -33 55 -44 l25 -21 -21 -21 -20
-21 -47 36 -47 36 0 -51 c0 -49 -1 -50 -30 -50 -29 0 -30 2 -30 45 0 25 -3 45
-6 45 -3 0 -24 -14 -45 -31 -40 -31 -52 -31 -69 0 -8 15 0 25 45 57 30 21 55
42 55 45 0 3 -25 23 -55 45 -30 21 -55 42 -55 45 0 3 9 14 20 24 18 17 21 16
62 -14 l43 -32 3 46 c3 43 5 45 33 45 28 0 29 -2 29 -45z m460 0 c0 -25 3 -45
6 -45 3 0 24 14 46 31 l40 32 21 -21 c11 -12 19 -23 16 -25 -2 -2 -28 -22 -57
-45 l-52 -41 55 -43 c30 -23 55 -45 55 -49 0 -3 -9 -14 -19 -24 -19 -17 -22
-16 -65 20 l-46 37 0 -51 c0 -50 -1 -51 -30 -51 -29 0 -30 1 -30 51 l0 51 -46
-37 c-43 -36 -46 -37 -65 -20 -10 10 -19 21 -19 24 0 4 25 26 55 49 l55 43
-52 41 c-29 23 -55 43 -57 45 -3 2 5 13 17 25 l21 22 40 -32 c22 -18 42 -32
45 -32 3 0 6 20 6 45 0 43 1 45 30 45 29 0 30 -2 30 -45z"/>
<path d="M5691 5584 c-51 -43 -54 -122 -6 -170 l24 -24 -30 -87 c-16 -48 -29
-88 -29 -90 0 -2 52 -3 115 -3 63 0 115 1 115 3 0 2 -13 42 -29 90 l-30 87 24
24 c73 73 23 196 -80 196 -32 0 -51 -7 -74 -26z"/>
<path d="M2090 4225 l0 -225 143 0 c117 0 149 4 182 19 79 37 115 101 115 209
0 99 -33 162 -103 196 -47 24 -61 26 -194 26 l-143 0 0 -225z"/>
<path d="M3187 3819 c-85 -11 -160 -43 -192 -81 -20 -24 -25 -41 -25 -85 0
-47 4 -59 29 -84 26 -25 37 -29 86 -29 64 0 106 15 153 54 l32 28 0 104 c0 57
-3 103 -7 103 -5 -1 -39 -5 -76 -10z"/>
<path d="M6885 3823 c-180 -20 -255 -72 -255 -176 0 -40 5 -54 29 -78 26 -25
37 -29 88 -29 66 0 124 23 166 65 27 28 28 31 25 123 -2 54 -7 96 -13 97 -5 1
-23 0 -40 -2z"/>
</g>
</svg>
