<svg viewBox="0 0 135 135.22" xmlns="http://www.w3.org/2000/svg"><path d="m67.56 0a67.58 67.58 0 0 0 -24.64 130.5c-.61-5.34-1.11-13.57.23-19.41 1.22-5.28 7.85-33.58 7.85-33.58a24.63 24.63 0 0 1 -2-10c0-9.4 5.45-16.4 12.23-16.4 5.79 0 8.57 4.33 8.57 9.51 0 5.78-3.67 14.45-5.62 22.51-1.61 6.73 3.39 12.24 10 12.24 12 0 21.24-12.68 21.24-30.92.05-16.19-11.57-27.45-28.2-27.45-19.22 0-30.52 14.38-30.52 29.28 0 5.78 2.22 12 5 15.4a2 2 0 0 1 .45 1.94c-.5 2.12-1.67 6.73-1.89 7.68-.28 1.22-1 1.5-2.28.89-8.46-3.95-13.74-16.19-13.74-26.19 0-21.3 15.46-40.87 44.65-40.87 23.41 0 41.65 16.68 41.65 39 0 23.3-14.68 42-35 42-6.84 0-13.29-3.56-15.46-7.79 0 0-3.39 12.9-4.23 16.07-1.5 5.9-5.61 13.24-8.39 17.74a67.62 67.62 0 1 0 20.1-132.15z" fill="#c40027"/></svg>