<svg viewBox="0 0 135 135" xmlns="http://www.w3.org/2000/svg"><circle cx="67.5" cy="67.5" fill="#dc4711" r="67.5"/><path d="m112.49 67.5a9.84 9.84 0 0 0 -16.67-7.08c-6.73-4.86-16-8-26.33-8.35l4.51-21.07 14.65 3.11a7 7 0 1 0 .72-3.44l-16.37-3.5a1.75 1.75 0 0 0 -1.32.24 1.73 1.73 0 0 0 -.77 1.11l-5 23.54c-10.48.29-19.9 3.43-26.72 8.34a9.84 9.84 0 1 0 -10.84 16.08 19.51 19.51 0 0 0 -.24 3c0 15.15 17.63 27.43 39.38 27.43s39.37-12.28 39.37-27.43a19.24 19.24 0 0 0 -.23-3 9.85 9.85 0 0 0 5.86-8.98zm-67.49 7.03a7 7 0 1 1 7 7 7 7 0 0 1 -7-7zm39.21 18.58c-4.8 4.79-14 5.17-16.7 5.17s-11.9-.38-16.7-5.17a1.82 1.82 0 1 1 2.58-2.58c3 3 9.5 4.1 14.12 4.1s11.09-1.07 14.12-4.1a1.82 1.82 0 0 1 2.58 2.58zm-1.21-11.55a7 7 0 1 1 7-7 7 7 0 0 1 -7 7z" fill="#fff"/></svg>