<svg id="Layer_1" data-name="Layer 1" xmlns="http://www.w3.org/2000/svg" xmlns:xlink="http://www.w3.org/1999/xlink" viewBox="0 0 967.11 967.11"><defs><style>.cls-1{fill:none;}.cls-2{clip-path:url(#clip-path);}.cls-3{fill:#3a76f0;}.cls-4{fill:#fff;}</style><clipPath id="clip-path" transform="translate(-28.44 -28.44)"><rect class="cls-1" width="1024" height="1024"/></clipPath></defs><title>signal</title><g class="cls-2"><path class="cls-3" d="M28.44,241.64V782.36c0,117.74,95.46,213.2,213.2,213.2H782.36c117.74,0,213.2-95.46,213.2-213.2V241.64c0-117.75-95.46-213.2-213.2-213.2H241.64c-117.74,0-213.2,95.45-213.2,213.2" transform="translate(-28.44 -28.44)"/><path class="cls-4" d="M430.15,180.91l7.67,31a307.93,307.93,0,0,0-85.69,35.44L335.72,220a339.36,339.36,0,0,1,94.43-39.06m163.7,0-7.67,31a307.93,307.93,0,0,1,85.69,35.44L688.39,220a339.43,339.43,0,0,0-94.54-39.06M220,335.7a340.08,340.08,0,0,0-39.06,94.43l31,7.67a308.47,308.47,0,0,1,35.44-85.68ZM202.92,512a309.23,309.23,0,0,1,3.46-46.3l-31.6-4.8a342.58,342.58,0,0,0,0,102.2l31.6-4.79A309.46,309.46,0,0,1,202.92,512M688.28,804l-16.41-27.39A308.28,308.28,0,0,1,586.29,812L594,843A340,340,0,0,0,688.28,804m132.8-292a309.46,309.46,0,0,1-3.46,46.31l31.6,4.79a342.58,342.58,0,0,0,0-102.2l-31.6,4.8a309.23,309.23,0,0,1,3.46,46.3m22,81.85-31-7.67a308.59,308.59,0,0,1-35.44,85.68L804,688.35a340.09,340.09,0,0,0,39.06-94.53M558.31,817.62a311.2,311.2,0,0,1-92.62,0l-4.8,31.6a342.65,342.65,0,0,0,102.21,0Zm202.5-122.29a310.13,310.13,0,0,1-65.49,65.43l19,25.74a341.33,341.33,0,0,0,72.26-72ZM695.32,263.18a310.41,310.41,0,0,1,65.49,65.49l25.74-19.18a341.79,341.79,0,0,0-72-72.05ZM263.19,328.67a310.41,310.41,0,0,1,65.49-65.49L309.5,237.44a341.56,341.56,0,0,0-72.05,72.05Zm540.84,7-27.39,16.42a308.4,308.4,0,0,1,35.44,85.57l31-7.67A339.84,339.84,0,0,0,804,335.7M465.69,206.38a311.2,311.2,0,0,1,92.62,0l4.79-31.6a342.65,342.65,0,0,0-102.21,0ZM279.6,795l-66,15.4,15.4-66-31.12-7.3-15.41,66a32,32,0,0,0,38.43,38.42l66-15.13Zm-75.08-86.43,31.12,7.25L246.3,670a307.78,307.78,0,0,1-34.38-83.87l-31,7.67a338.43,338.43,0,0,0,31.44,81Zm149.21,69.28L308,788.47l7.25,31.12,33.68-7.83a338.85,338.85,0,0,0,81.05,31.44l7.68-31a308.07,308.07,0,0,1-83.67-34.59ZM512,234.89A277.08,277.08,0,0,0,277.52,659.41L250.88,773.07l113.67-26.64A277.09,277.09,0,1,0,512,234.89" transform="translate(-28.44 -28.44)"/></g></svg>