<?xml version="1.0" encoding="iso-8859-1"?>
<!-- Uploaded to: SVG Repo, www.svgrepo.com, Generator: SVG Repo Mixer Tools -->
<svg height="800px" width="800px" version="1.1" id="Layer_1" xmlns="http://www.w3.org/2000/svg" xmlns:xlink="http://www.w3.org/1999/xlink" 
	 viewBox="0 0 473.931 473.931" xml:space="preserve">
<circle style="fill:#1B92D0;" cx="236.966" cy="236.966" r="236.966"/>
<path style="fill:#1A8ABA;" d="M404.522,68.433c92.541,92.541,92.545,242.586-0.004,335.134
	c-92.545,92.545-242.593,92.545-335.134,0.004L404.522,68.433z"/>
<path style="fill:#1B88AD;" d="M467.379,292.228L325.324,150.176l-28.16,28.16l-69.567-54.589L118.618,232.726l48.201,75.954
	l-18.81,18.81l140.705,140.705C376.844,448.551,446.429,379.86,467.379,292.228z"/>
<path style="fill:#1D839F;" d="M450.553,339.707L248.558,137.708l-32.811,8.494l-42.405,19.955l-17.777,57.687l-1.16,49.178
	L334.36,452.977C385.136,430.04,426.411,389.802,450.553,339.707z"/>
<path style="fill:#FFFFFF;" d="M361.997,260.412c1.007-6.357,1.534-12.864,1.534-19.506c0-69.032-55.962-124.993-124.997-124.993
	c-6.627,0-13.149,0.546-19.502,1.534c-11.513-7.113-25.1-11.237-39.663-11.237c-41.713,0-75.535,33.807-75.535,75.527
	c0,14.559,4.127,28.134,11.244,39.674c-0.984,6.368-1.527,12.853-1.527,19.498c0,69.032,55.962,124.975,124.979,124.975
	c6.63,0,13.156-0.509,19.51-1.512c11.525,7.109,25.103,11.248,39.666,11.248c41.721,0,75.539-33.826,75.539-75.542
	C373.244,285.515,369.121,271.936,361.997,260.412z M297.878,297.747c-5.287,7.615-13.051,13.564-23.206,17.841
	c-10.17,4.284-22.189,6.417-36.067,6.417c-16.64,0-30.417-2.907-41.287-8.786c-7.708-4.209-13.972-9.86-18.795-16.902
	c-4.827-7.049-7.274-13.949-7.274-20.677c0-3.97,1.512-7.424,4.46-10.234c2.978-2.833,6.814-4.258,11.338-4.258
	c3.708,0,6.892,1.119,9.485,3.334c2.574,2.215,4.733,5.426,6.499,9.669c2.114,4.917,4.415,9.033,6.862,12.307
	c2.428,3.24,5.848,5.946,10.282,8.063c4.385,2.122,10.211,3.184,17.511,3.184c9.987,0,18.058-2.155,24.235-6.425
	c6.208-4.296,9.193-9.53,9.193-15.85c0-5.044-1.609-9.055-4.905-12.176c-3.326-3.158-7.622-5.571-12.958-7.252
	c-5.351-1.695-12.539-3.499-21.545-5.392c-12.09-2.638-22.211-5.714-30.398-9.242c-8.202-3.54-14.735-8.382-19.573-14.496
	c-4.849-6.174-7.27-13.848-7.27-22.944c0-8.67,2.552-16.426,7.667-23.169c5.111-6.761,12.505-11.94,22.144-15.551
	c9.605-3.607,20.916-5.407,33.87-5.407c10.361,0,19.319,1.197,26.907,3.588c7.566,2.398,13.871,5.568,18.915,9.553
	c5.014,3.966,8.696,8.157,11.031,12.55c2.331,4.412,3.51,8.711,3.51,12.909c0,3.906-1.512,7.446-4.46,10.556
	c-2.949,3.106-6.72,4.692-11.128,4.677c-3.974,0-7.091-0.913-9.25-2.859c-2.107-1.871-4.314-4.861-6.705-9.025
	c-3.023-5.815-6.642-10.335-10.851-13.575c-4.097-3.177-10.855-4.834-20.265-4.812c-8.703,0-15.67,1.777-20.928,5.253
	c-5.287,3.536-7.82,7.637-7.831,12.445c0.011,3.012,0.872,5.545,2.616,7.719c1.77,2.193,4.228,4.09,7.394,5.691
	c3.166,1.624,6.383,2.881,9.62,3.787c3.27,0.924,8.696,2.264,16.247,4.041c9.463,2.039,18.054,4.318,25.77,6.803
	c7.701,2.499,14.267,5.508,19.7,9.1c5.474,3.573,9.751,8.135,12.801,13.642c3.072,5.515,4.602,12.251,4.602,20.183
	C305.836,281.567,303.176,290.147,297.878,297.747z"/>
</svg>