<svg id="Layer_1" data-name="Layer 1" xmlns="http://www.w3.org/2000/svg" viewBox="0 0 230.17 226.92"><defs><style>.cls-1{fill:#010100;}.cls-2{fill:#f8d302;}.cls-3{fill:#f7d303;}.cls-4{fill:#f7d302;}</style></defs><title>snack video</title><path class="cls-1" d="M21.74,175.16c-2.77.1-5.54.36-8.31.27-9.44-.32-15.11-6.93-13-16.1,1.4-6.07,4.21-11.81,6.39-17.69,5.32-8.84,10.77-17.62,15.91-26.56a158.76,158.76,0,0,0,7.83-15.59c2.17-5,1.11-9.87-2.42-13.93-5-5.76-6.28-12.54-5.83-19.8.56-9.19,4.61-17.07,9.74-24.46,2.43-3.5,5.12-6.83,7.69-10.24l0,0,1.13-1.19c9-9.48,19.88-16,31.79-21,64.76-26.94,138.06,9.65,154,78,10.62,45.57-3,84.18-38.87,114.59-1.31,1.11-2.8,2-4.2,3l-1.2.89,0,0-.67.53,0,0-1.16.64,0,0L180,207l0,0a10.36,10.36,0,0,0-1.51.33c-5,1.92-9.84,4.27-15,5.72-12.39,3.53-23.59,2.19-32.63-8.39-1.92-2.25-5.39-3.72-8.41-4.36-3.66-.79-7.59-.4-11.41-.39-4.88,0-9.77.46-14.63.21-6.82-.35-12.61-3.12-16.62-8.88-3.55-5.1-7.19-10.17-10.4-15.48-3.85-6.36-9.47-8.07-16.25-6.82C42.72,170.87,32.24,173.07,21.74,175.16Zm132.48-42.31,0,0,1.24-1.11,0,.08a5.75,5.75,0,0,0,1.48-.51,70.62,70.62,0,0,0,17.21-15.91c6.25-8.34,6.28-15.47.18-23.92a25.9,25.9,0,0,0-1.77-2.26,95,95,0,0,0-48.42-29.11,38.31,38.31,0,0,0-12.23-.81c-7.37.58-11.37,5.71-14,12-4.27,10.13-5.52,20.84-5.61,31.72s1.09,21.41,5.23,31.49c4.79,11.68,13.88,15.69,26,11.71h-.06l2.71-.54A77.14,77.14,0,0,0,153,133.42Z"/><path class="cls-2" d="M21.74,175.16c10.5-2.09,21-4.29,31.5-6.22,6.78-1.25,12.4.46,16.25,6.82,3.21,5.31,6.85,10.38,10.4,15.48,4,5.76,9.8,8.53,16.62,8.88,4.86.25,9.75-.19,14.63-.21,3.82,0,7.75-.4,11.41.39,3,.64,6.49,2.11,8.41,4.36,9,10.58,20.24,11.92,32.63,8.39,5.12-1.45,10-3.8,15-5.72a10.36,10.36,0,0,1,1.51-.33,18.14,18.14,0,0,1-2.24,2c-18.51,11.89-38.83,18.2-60.76,17.93-39.88-.49-71.42-17.36-94.46-50A13.29,13.29,0,0,1,21.74,175.16Z"/><path class="cls-3" d="M39.76,31.06c-2.57,3.41-5.26,6.74-7.69,10.24-5.13,7.39-9.18,15.27-9.74,24.46-.45,7.26.81,14,5.83,19.8,3.53,4.06,4.59,8.94,2.42,13.93a158.76,158.76,0,0,1-7.83,15.59C17.61,124,12.16,132.8,6.84,141.64a105.51,105.51,0,0,1-3.1-40,110.15,110.15,0,0,1,22-55.85c3.62-4.79,7.85-9.12,11.87-13.6A6.91,6.91,0,0,1,39.76,31.06Z"/><path class="cls-3" d="M40.87,29.9l-1.13,1.19Z"/><path class="cls-2" d="M182.39,205.39l1.2-.89Z"/><path class="cls-2" d="M180.64,206.5l1.16-.64Z"/><path class="cls-2" d="M181.76,205.89l.67-.53Z"/><path class="cls-2" d="M180,207l.64-.56Z"/><path class="cls-4" d="M123.52,146.26c-12.16,4-21.25,0-26-11.71-4.14-10.08-5.33-20.7-5.23-31.49s1.34-21.59,5.61-31.72c2.66-6.3,6.66-11.43,14-12a38.31,38.31,0,0,1,12.23.81,95,95,0,0,1,48.42,29.11,25.9,25.9,0,0,1,1.77,2.26c6.1,8.45,6.07,15.58-.18,23.92a70.62,70.62,0,0,1-17.21,15.91,5.75,5.75,0,0,1-1.48.51c2.09-2.28,4.25-4.49,6.25-6.84,6-7.09,6.16-13,0-19.94a64.51,64.51,0,0,0-33.91-20.34c-10.94-2.63-16.46.69-19.58,11.55a66.76,66.76,0,0,0,0,37.64c2.12,7.36,6.15,12.56,14.76,12.09C123.18,146,123.35,146.17,123.52,146.26Z"/><path class="cls-4" d="M154.18,132.88l1.24-1.11Z"/><path class="cls-4" d="M123.46,146.26l2.71-.54Z"/><path class="cls-4" d="M153,133.42l1.24-.57Z"/></svg>