<svg viewBox="0 0 135 135" xmlns="http://www.w3.org/2000/svg"><circle cx="67.5" cy="67.5" fill="#fefb00" r="67.5"/><path d="m39.07 51.73c0-.25 0-.44 0-.63 0-1.2 0-2.4 0-3.6a39 39 0 0 1 1-7.76 24.17 24.17 0 0 1 4.46-9.2 27.47 27.47 0 0 1 14.77-9.66 31.7 31.7 0 0 1 9.65-1 30.16 30.16 0 0 1 10.1 2 26.83 26.83 0 0 1 13.06 10.66 24 24 0 0 1 3.42 8.91 47.18 47.18 0 0 1 .66 8v2.12c.14.15.26.05.37 0a12.75 12.75 0 0 1 3.08-.27 8.71 8.71 0 0 1 3.87 1.05 7.9 7.9 0 0 1 4 5.34 8.47 8.47 0 0 1 -1.76 7.47 13.49 13.49 0 0 1 -3 2.74c-.94.64-1.9 1.25-2.85 1.88l-1.16.76c-.12.08-.25.16-.36.25a1.27 1.27 0 0 0 -.52 1.61 6 6 0 0 0 .3.69 23.7 23.7 0 0 0 5 6.67 31.76 31.76 0 0 0 7.42 5.22c.73.37 1.46.75 2.18 1.15a7.7 7.7 0 0 1 1.72 1.28 5.77 5.77 0 0 1 1.71 3.84 5.84 5.84 0 0 1 -1 3.53 9 9 0 0 1 -2.94 2.83 23.13 23.13 0 0 1 -3 1.51 27.12 27.12 0 0 1 -3.28 1.15 11.6 11.6 0 0 0 -1.13.39 1.6 1.6 0 0 0 -.93.89c-.11.25-.22.51-.32.76a7 7 0 0 1 -5.27 4.54 15.43 15.43 0 0 1 -2.88.36c-1.07.06-2.15.08-3.22.15a20.86 20.86 0 0 0 -5 .92 9.56 9.56 0 0 0 -2 .9q-1.29.75-2.55 1.53a36.42 36.42 0 0 1 -4.67 2.49 25.18 25.18 0 0 1 -6.93 1.8 29 29 0 0 1 -6.32.07 25.34 25.34 0 0 1 -9.15-2.71c-1.18-.61-2.32-1.29-3.45-2-.48-.29-1-.58-1.46-.88a13.56 13.56 0 0 0 -4.69-1.69 31.37 31.37 0 0 0 -5-.48 26.54 26.54 0 0 1 -3.34-.27 8.52 8.52 0 0 1 -2.41-.74 6.93 6.93 0 0 1 -3.39-3.6c-.13-.31-.25-.63-.37-.94a1.8 1.8 0 0 0 -1.14-1.11l-1-.32a26.84 26.84 0 0 1 -5.61-2.28 10.17 10.17 0 0 1 -3.06-2.51 6.53 6.53 0 0 1 -1.31-2.54 5.67 5.67 0 0 1 1.32-5.35 6.83 6.83 0 0 1 1.56-1.28 17.29 17.29 0 0 1 1.89-1 34.15 34.15 0 0 0 6.48-4.15 24.88 24.88 0 0 0 5.86-6.82c.27-.48.5-1 .76-1.46a2.6 2.6 0 0 0 .27-.9 1.06 1.06 0 0 0 -.26-.88 4.67 4.67 0 0 0 -.74-.59l-3.81-2.48a15.88 15.88 0 0 1 -2.27-1.82 9.85 9.85 0 0 1 -2.43-3.59 8.27 8.27 0 0 1 6.44-11.19 10.46 10.46 0 0 1 4 .12z"/><path d="m90.75 51.62c0 1.86-.11 3.71-.25 5.56v1c0 .69.39 1 1.07.9a2.74 2.74 0 0 0 .74-.17c.67-.23 1.34-.48 2-.74a25.65 25.65 0 0 1 3.38-1.17 5.18 5.18 0 0 1 2.38-.1 2.87 2.87 0 0 1 2.06 4 4.06 4.06 0 0 1 -.79 1.22 8.18 8.18 0 0 1 -1.58 1.35l-2.05 1.36c-1.14.76-2.29 1.5-3.43 2.27-.47.31-.93.65-1.38 1a6.09 6.09 0 0 0 -.69.65 2.21 2.21 0 0 0 -.59 1.68 8.39 8.39 0 0 0 .32 1.8 22.37 22.37 0 0 0 2.38 5.36 31 31 0 0 0 7.06 8 40.62 40.62 0 0 0 7.73 4.88q.38.18.72.39a1.43 1.43 0 0 1 .46.42.76.76 0 0 1 .06.84 2.42 2.42 0 0 1 -.54.61 7.56 7.56 0 0 1 -1 .65 22.46 22.46 0 0 1 -4.94 1.91l-2.18.62a7.72 7.72 0 0 0 -1.45.62 2.6 2.6 0 0 0 -1.41 1.91c-.09.48-.15 1-.23 1.44a1.88 1.88 0 0 1 -1.83 1.84 10.56 10.56 0 0 1 -1.26.14c-1 .06-2.1.08-3.15.14a27.74 27.74 0 0 0 -7 1.25 15.27 15.27 0 0 0 -2.77 1.23c-.93.53-1.85 1.09-2.77 1.65a29.51 29.51 0 0 1 -4.54 2.34 20.14 20.14 0 0 1 -5.52 1.27 23.23 23.23 0 0 1 -4.79 0 19.79 19.79 0 0 1 -6.8-2.06c-1-.51-1.95-1.08-2.9-1.66l-2.11-1.27a18 18 0 0 0 -5.41-2.06 30 30 0 0 0 -5.26-.66c-.93 0-1.86-.07-2.78-.13a7.44 7.44 0 0 1 -1.56-.23 1.67 1.67 0 0 1 -1.33-1.36c-.08-.42-.15-.83-.22-1.25v-.25a2.86 2.86 0 0 0 -1.74-2.38 13.36 13.36 0 0 0 -2-.71c-1.16-.32-2.33-.6-3.46-1a20.54 20.54 0 0 1 -2.88-1.28c-.28-.15-.55-.32-.81-.49a3.15 3.15 0 0 1 -.48-.41.92.92 0 0 1 .12-1.55 5.66 5.66 0 0 1 1-.55 39.48 39.48 0 0 0 6.82-4.21 30.77 30.77 0 0 0 7.65-8.35 22.67 22.67 0 0 0 2.52-5.56 7.88 7.88 0 0 0 .33-1.93 2.23 2.23 0 0 0 -.67-1.74 6.08 6.08 0 0 0 -.85-.76c-.88-.65-1.8-1.26-2.71-1.86l-3.44-2.28a11.87 11.87 0 0 1 -1.65-1.27 6.05 6.05 0 0 1 -1-1.17 3 3 0 0 1 -.17-2.84 2.53 2.53 0 0 1 1.46-1.41 4.32 4.32 0 0 1 2.36-.19 16.55 16.55 0 0 1 2.67.75l2.66 1a6.08 6.08 0 0 0 1.26.37 1.77 1.77 0 0 0 .32 0c.51 0 .93-.18.92-.87s0-1.14-.06-1.7a86.16 86.16 0 0 1 -.17-9.23 32.72 32.72 0 0 1 .72-5.83 18.88 18.88 0 0 1 3.38-7.28 21.93 21.93 0 0 1 11.92-7.95 26.45 26.45 0 0 1 8.07-.9 25 25 0 0 1 8.31 1.77 21.31 21.31 0 0 1 7 4.2 19.65 19.65 0 0 1 5.55 8.47 25.24 25.24 0 0 1 1 4.63 57.73 57.73 0 0 1 .2 7.32z" fill="#fff"/></svg>