<svg viewBox="0 0 135 135" xmlns="http://www.w3.org/2000/svg" xmlns:xlink="http://www.w3.org/1999/xlink"><linearGradient id="a" gradientUnits="userSpaceOnUse" x1="67.5" x2="67.5" y1="16.51" y2="130.18"><stop offset="0" stop-color="#f8a01d"/><stop offset=".47" stop-color="#f26e23"/><stop offset="1" stop-color="#ef5826"/></linearGradient><circle cx="67.5" cy="67.5" fill="url(#a)" r="67.5"/><path d="m12.68 67.45-.68 6.15.68 6.15a.35.35 0 0 0 .69 0l1-6.15-1-6.15a.34.34 0 0 0 -.35-.34.33.33 0 0 0 -.34.34m4.1-3.75-1 9.9 1 9.9a.34.34 0 0 0 .34.35.34.34 0 0 0 .34-.35l1.37-9.9-1.37-9.9a.34.34 0 0 0 -.34-.35zm13-1.37-.7 11.27.68 12a.73.73 0 0 0 .68.69.74.74 0 0 0 .69-.69l1.36-12-1-11.27a.73.73 0 0 0 -.69-.68c-.68 0-1 .34-1 .68m-8.54-.68-1 11.95 1 11.27a.73.73 0 0 0 .68.68 1.18 1.18 0 0 0 .35-.68l1-11.27-1-11.95a.74.74 0 0 0 -.69-.69c0 .34-.34.34-.34.69m4.1-.35-1 12.3 1 11.61a.74.74 0 0 0 .68.69.75.75 0 0 0 .69-.69l1-11.61-1-12.3a.74.74 0 0 0 -.69-.68c-.34 0-.34.34-.68.68m8.88-6.14-1 18.44 1 12a.73.73 0 0 0 .68.69c.69 0 1-.34 1-.69l1-12-1-18.44a.74.74 0 0 0 -.69-.69c-.68 0-1 .35-1 .69m4.44-4.1-.67 22.54.68 12a.9.9 0 0 0 1 1 1.09 1.09 0 0 0 1-1l1-12-1-22.54a1 1 0 1 0 -2 0m18.1-1-.72 23.54.68 11.27a1.37 1.37 0 1 0 2.73 0l.69-11.27-.69-23.91a1.46 1.46 0 0 0 -1.36-1.36c-1 .34-1.37.68-1.37 1.7m-13.66-1.03-.68 24.6.68 11.61a1 1 0 1 0 2.05 0l.68-11.61-.68-24.6a.91.91 0 0 0 -1-1 1.09 1.09 0 0 0 -1 1m8.87 0-.72 24.6.72 11.61a1.37 1.37 0 1 0 2.73 0l.69-11.61-.73-24.6a1.37 1.37 0 1 0 -2.69 0m-4.44-.68-.72 25.28.68 11.61a1 1 0 1 0 2 0l.68-11.61-.68-25.27a1 1 0 1 0 -2 0m13.66-3.08-.68 28.35.68 11.27a1.37 1.37 0 1 0 2.73 0l.69-11.27-.69-28.35a1.37 1.37 0 0 0 -2.73 0m4.82-2.39-.72 30.74.72 11.27a1.37 1.37 0 1 0 2.74 0l.68-11.27-.72-30.74a1.47 1.47 0 0 0 -1.37-1.36h-.33c-.69 0-1 .68-1 1.36m5.47-3.07c-1 .34-1.37.68-1.37 1.71v43.37a2.27 2.27 0 0 0 1.37 1.71h37.91a13.66 13.66 0 0 0 0-27.32 12.48 12.48 0 0 0 -5.12 1 23.86 23.86 0 0 0 -23.95-21.84h-1.71a26.33 26.33 0 0 0 -7.17 1.37" fill="#fff" opacity=".9"/></svg>