<svg viewBox="0 0 135 135" xmlns="http://www.w3.org/2000/svg"><path d="m67.5 0a67.5 67.5 0 1 0 67.5 67.5 67.5 67.5 0 0 0 -67.5-67.5zm31 97.36a4.21 4.21 0 0 1 -5.79 1.4c-15.85-9.69-35.8-11.88-59.3-6.51a4.21 4.21 0 0 1 -1.87-8.2c25.71-5.88 47.77-3.35 65.56 7.52a4.22 4.22 0 0 1 1.36 5.79zm8.22-18.36a5.27 5.27 0 0 1 -7.24 1.73c-18.14-11.15-45.8-14.38-67.26-7.86a5.26 5.26 0 1 1 -3.06-10.07c24.51-7.44 55-3.84 75.82 9a5.27 5.27 0 0 1 1.74 7.2zm.71-19.14c-21.76-12.94-57.65-14.13-78.43-7.86a6.31 6.31 0 0 1 -3.66-12c23.85-7.24 63.48-5.84 88.53 9a6.31 6.31 0 0 1 -6.44 10.86z" fill="#7bd568"/><g fill="#010201"><path d="m98.46 97.36a4.21 4.21 0 0 1 -5.79 1.4c-15.85-9.69-35.8-11.88-59.3-6.51a4.21 4.21 0 0 1 -1.87-8.2c25.71-5.88 47.77-3.35 65.56 7.52a4.22 4.22 0 0 1 1.4 5.79z"/><path d="m106.72 79a5.27 5.27 0 0 1 -7.24 1.73c-18.14-11.15-45.8-14.38-67.26-7.86a5.26 5.26 0 1 1 -3.06-10.07c24.51-7.44 55-3.84 75.82 9a5.27 5.27 0 0 1 1.74 7.2z"/><path d="m107.43 59.84c-21.76-12.92-57.65-14.11-78.43-7.84a6.31 6.31 0 0 1 -3.66-12c23.85-7.24 63.48-5.84 88.53 9a6.31 6.31 0 0 1 -6.44 10.86z"/></g></svg>