<svg viewBox="0 0 135 135" xmlns="http://www.w3.org/2000/svg"><circle cx="67.5" cy="67.5" fill="#010201" r="67.5"/><path d="m49.48 94.59.25.22c.74.54 1.29 1.29 2 1.86a13 13 0 0 0 7.58 2.93 12.86 12.86 0 0 0 13.46-11.39c0-.33 0-.66 0-1v-60.56c0-1.37 0-1.37 1.36-1.37h9.2a1.42 1.42 0 0 1 .86.12l.05.05a1 1 0 0 1 .23.54 21.21 21.21 0 0 0 8.53 13.07c.28.21.51.47.78.68l.59.5a13.43 13.43 0 0 1 1.86 1.6 21.22 21.22 0 0 0 8.42 4.3c.27.07.59.07.79.33a.1.1 0 0 0 0 0 .91.91 0 0 1 .15.68q0 5.34 0 10.68c0 .81-.11.85-.93.85a33.79 33.79 0 0 1 -7.7-.93 36.73 36.73 0 0 1 -12.11-5.21c-.2-.13-.4-.4-.61-.31s-.12.46-.12.7v30.07a28.67 28.67 0 0 1 -25.35 28.48 28.36 28.36 0 0 1 -16.32-2.88 14.61 14.61 0 0 1 -2.38-1.46l-.7-.62a19.38 19.38 0 0 1 -4.17-5.32 27.39 27.39 0 0 1 -3.49-9.68 26.9 26.9 0 0 1 -.38-5.94 28.67 28.67 0 0 1 19.67-25.85 25.9 25.9 0 0 1 6.59-1.34 8.78 8.78 0 0 1 1.25-.1.91.91 0 0 1 .58.13h.06a1.18 1.18 0 0 1 .09.64v10.88.38q0 .54-.54.39a14.16 14.16 0 0 0 -3-.47 11.7 11.7 0 0 0 -4.62.69c-5 1.83-8 5.39-8.61 10.63s1.41 9.29 5.71 12.27c.27.25.64.48.97.76z" fill="#fff"/><path d="m40.13 107.18c.19-.05.3.1.44.19a28.57 28.57 0 0 0 10.43 3.85 27 27 0 0 0 5.68.33 28.55 28.55 0 0 0 26.4-21.29 27.56 27.56 0 0 0 .92-5.72c.06-1.11.05-2.22.05-3.34q0-14.33 0-28.65v-.65c.24-.07.36.12.49.21a36.72 36.72 0 0 0 11.06 5.15 37.67 37.67 0 0 0 6.66 1.2c1 .08 1.9.07 2.84.14.42 0 .42 0 .43-.42v-11.07c0-.2 0-.4 0-.6.85.1 1.69.28 2.55.35.53 0 1.05.08 1.58.07.26 0 .37.08.35.34a1.82 1.82 0 0 0 0 .33v14a2.43 2.43 0 0 1 0 .27c0 .41 0 .42-.44.42a33.65 33.65 0 0 1 -4.37-.3 36.76 36.76 0 0 1 -8.62-2.2 37.15 37.15 0 0 1 -7.53-4l-.52-.34v.66q0 15.32 0 30.62a28.46 28.46 0 0 1 -30.53 28.48 28.23 28.23 0 0 1 -17.51-7.63c-.12-.12-.23-.26-.36-.4z" fill="#cb1c54"/><path d="m84.21 25.41c-.2 0-.4 0-.6 0h-9.87c-.76 0-.76 0-.76.74v60.29a12.88 12.88 0 0 1 -.54 4.1 12.51 12.51 0 0 1 -9.51 8.9c-5.17 1.18-9.56-.39-13.06-4.4a1.76 1.76 0 0 1 -.14-.23 17.14 17.14 0 0 0 3.06 1 13.06 13.06 0 0 0 15.53-10.67 11.84 11.84 0 0 0 .16-2.23q0-30.19 0-60.38c0-.93-.13-.82.8-.82h14.25c.48 0 .48 0 .48.49a15.66 15.66 0 0 0 .2 3.21z" fill="#6abac5"/><path d="m59.37 58.42a29 29 0 0 0 -8.31 1.44 28.52 28.52 0 0 0 -18.5 19.34 27.05 27.05 0 0 0 -1 5.65 28.3 28.3 0 0 0 7.71 21.53 1.18 1.18 0 0 1 .13.18 6.84 6.84 0 0 1 -1.48-1 28.29 28.29 0 0 1 -9.63-13.86 27.78 27.78 0 0 1 -1.2-6 27.32 27.32 0 0 1 -.06-4.43 28.5 28.5 0 0 1 18.77-24.88 29 29 0 0 1 13.2-1.47c.25 0 .4.08.39.38-.02 1.04-.02 2.08-.02 3.12z" fill="#6abac5"/><path d="m49.48 94.59a10.63 10.63 0 0 1 -3-2.12 12.6 12.6 0 0 1 -3.94-7.92 13 13 0 0 1 16.41-14 .76.76 0 0 0 .42.06 1.36 1.36 0 0 0 0-.6v-11c0-.2 0-.4 0-.6a22.65 22.65 0 0 1 4.2.19c.22 0 .28.12.28.32s0 .21 0 .32q0 7.26 0 14.52a1 1 0 0 1 -.06.55c-.64-.12-1.27-.31-1.91-.4a12.8 12.8 0 0 0 -10.07 2.68 12.51 12.51 0 0 0 -4.74 8 12.72 12.72 0 0 0 2.13 9.57 3.73 3.73 0 0 1 .28.43z" fill="#cb1c54"/><path d="m93.81 39.74a17.88 17.88 0 0 1 -3.81-3.05 21.36 21.36 0 0 1 -5.78-11.13v-.1c1.31-.08 2.63 0 3.94 0 .23 0 .33.09.31.32a2.62 2.62 0 0 0 0 .28 19.69 19.69 0 0 0 2.82 10.2 21.11 21.11 0 0 0 2.24 3.17c.13.07.26.15.28.31z" fill="#cb1c54"/><path d="m105.47 46.47a21.41 21.41 0 0 1 -9.89-5 7.44 7.44 0 0 1 -1.18-1.2.63.63 0 0 1 .35.13 21.6 21.6 0 0 0 7.25 2.6 18.29 18.29 0 0 0 3 .26c.42 0 .43 0 .43.42.06.9.05 1.84.04 2.79z" fill="#6abac5"/></svg>