<svg viewBox="0 0 135 135" xmlns="http://www.w3.org/2000/svg"><circle cx="67.5" cy="67.5" fill="#5a99ec" r="67.5"/><path d="m53.86 106.38c33 0 51-27.32 51-51 0-.78 0-1.55 0-2.32a36.52 36.52 0 0 0 8.94-9.28 35.57 35.57 0 0 1 -10.29 2.82 18 18 0 0 0 7.88-9.91 36.21 36.21 0 0 1 -11.39 4.31 17.93 17.93 0 0 0 -31 12.3 17.72 17.72 0 0 0 .46 4.08 50.87 50.87 0 0 1 -36.99-18.72 17.93 17.93 0 0 0 5.53 23.93 17.71 17.71 0 0 1 -8.12-2.25 1.77 1.77 0 0 0 0 .23 17.93 17.93 0 0 0 14.39 17.57 18 18 0 0 1 -8.09.31 18 18 0 0 0 16.74 12.45 35.93 35.93 0 0 1 -22.26 7.67 35.48 35.48 0 0 1 -4.27-.25 50.68 50.68 0 0 0 27.47 8.06" fill="#fff"/></svg>