<svg viewBox="0 0 135 135" xmlns="http://www.w3.org/2000/svg"><circle cx="67.5" cy="67.5" fill="#1ab7ea" r="67.5"/><path d="m111.11 50.36q-.61 13.28-18.56 36.37-18.55 24.12-31.4 24.12-8 0-13.46-14.69l-7.35-26.93q-4.08-14.69-8.76-14.69c-.69 0-3.07 1.44-7.15 4.29l-4.28-5.51q6.75-5.92 13.28-11.84 9-7.77 13.49-8.18 10.62-1 13.07 14.52 2.65 16.77 3.68 20.86 3.08 13.91 6.75 13.91 2.85 0 8.58-9t6.12-13.74c.55-5.22-1.5-7.85-6.12-7.85a17.07 17.07 0 0 0 -6.74 1.49q6.7-22 25.63-21.35 14.03.43 13.22 18.22z" fill="#fff"/></svg>