<svg viewBox="0 0 135 135" xmlns="http://www.w3.org/2000/svg" xmlns:xlink="http://www.w3.org/1999/xlink"><linearGradient id="a" gradientUnits="userSpaceOnUse" x1="67.5" x2="67.5" y1="126.92" y2="-8.08"><stop offset="0" stop-color="#00cd63"/><stop offset=".63" stop-color="#00de7d"/><stop offset="1" stop-color="#00e88d"/></linearGradient><circle cx="67.5" cy="67.5" fill="url(#a)" r="67.5"/><g fill="#fff"><path d="m115.86 77a41.34 41.34 0 0 0 -1-4.57 24.76 24.76 0 0 0 -11.41-13.63 33 33 0 0 0 -22.76-4.13 30.27 30.27 0 0 0 -18.35 9.88 21.71 21.71 0 0 0 -2.17 26.52c5.42 8.38 13.56 12.22 23.22 13.24a37.68 37.68 0 0 0 13.47-1.31 2 2 0 0 1 1.29.08c2.19 1.09 4.35 2.24 6.52 3.38.81.42 1.62.86 2.58 1.37-.09-.31-.12-.45-.17-.58-.77-2.43-1.54-4.86-2.34-7.27-.16-.48-.15-.77.31-1.07.61-.4 1.17-.87 1.74-1.33a24.21 24.21 0 0 0 8.41-12.38c.36-1.3.54-2.66.8-4v-3.66c0-.17-.1-.33-.14-.54zm-38.51-1.78a4 4 0 1 1 4-4 4 4 0 0 1 -4 4zm19.38 0a4 4 0 1 1 4-4 4 4 0 0 1 -4 4z"/><path d="m55.34 74.16c1.49-6.6 5.33-11.64 10.74-15.51 6.47-4.65 13.81-6.46 21.7-6.29h1.51a.73.73 0 0 0 0-.25c-.16-.66-.31-1.33-.51-2-2.71-8.55-8.4-14.6-16.24-18.58a39.44 39.44 0 0 0 -30-2.48c-8.11 2.41-14.76 7-19.35 14.19a25.22 25.22 0 0 0 -3.87 17.87 27.36 27.36 0 0 0 8.4 15.89c1.61 1.55 3.4 2.92 5.15 4.41l-3.41 10.14 1.17-.6c3.29-1.76 6.59-3.5 9.87-5.28a2 2 0 0 1 1.7-.18 43.18 43.18 0 0 0 12 1.87h1.87c-.13-.46-.22-.77-.31-1.07a23.77 23.77 0 0 1 -.42-12.13zm11.21-32.39a5 5 0 1 1 -5 5 5 5 0 0 1 5-5zm-24.31 10a5 5 0 1 1 5-5 5 5 0 0 1 -5 4.98z"/></g></svg>