<svg viewBox="0 0 135 135" xmlns="http://www.w3.org/2000/svg" xmlns:xlink="http://www.w3.org/1999/xlink"><linearGradient id="a" gradientUnits="userSpaceOnUse" x1="67.5" x2="67.5" y1="125.19" y2="-9.81"><stop offset="0" stop-color="#78cd51"/><stop offset="1" stop-color="#a0fc84"/></linearGradient><circle cx="67.5" cy="67.5" fill="url(#a)" r="67.5"/><path d="m100 35.86a42.83 42.83 0 0 0 -67.4 51.65l-6.1 22.18 22.7-6a42.76 42.76 0 0 0 20.46 5.31 42.82 42.82 0 0 0 30.34-73.14zm-30.32 65.86a35.56 35.56 0 0 1 -18.12-5l-1.31-.72-13.47 3.52 3.6-13.13-.85-1.34a35.59 35.59 0 1 1 30.15 16.67zm19.52-26.65c-1.07-.53-6.33-3.12-7.31-3.48s-1.69-.53-2.41.54-2.76 3.48-3.38 4.19-1.25.81-2.32.27a29 29 0 0 1 -8.61-5.31 32.28 32.28 0 0 1 -6-7.41c-.62-1.07-.06-1.65.47-2.18s1.07-1.25 1.61-1.87a7.58 7.58 0 0 0 1.12-1.82 2 2 0 0 0 -.09-1.87c-.27-.54-2.41-5.8-3.3-7.94s-1.75-1.81-2.41-1.84-1.34 0-2 0a3.94 3.94 0 0 0 -2.85 1.34 12 12 0 0 0 -3.75 8.92c0 5.27 3.84 10.35 4.37 11.07s7.55 11.52 18.28 16.15a60.33 60.33 0 0 0 6.1 2.25 14.67 14.67 0 0 0 6.74.43c2-.31 6.33-2.59 7.22-5.09s.89-4.64.62-5.09-1.03-.72-2.1-1.26z" fill="#fff" fill-rule="evenodd"/></svg>